<mxfile host="app.diagrams.net" agent="Mozilla/5.0 (Macintosh; Intel Mac OS X 10_15_7) AppleWebKit/537.36 (KHTML, like Gecko) Chrome/129.0.0.0 Safari/537.36" version="24.7.15">
  <diagram name="Page-1" id="uferWkPT7eK2L2uZxs7O">
    <mxGraphModel dx="1415" dy="1697" grid="0" gridSize="10" guides="1" tooltips="1" connect="1" arrows="1" fold="1" page="0" pageScale="1" pageWidth="1100" pageHeight="850" background="none" math="0" shadow="0">
      <root>
        <mxCell id="0" />
        <mxCell id="1" parent="0" />
        <mxCell id="suRE_rHokEg1OIpaxFs9-218" value="" style="rounded=1;whiteSpace=wrap;html=1;fontFamily=Helvetica;fontSize=11;labelBackgroundColor=default;arcSize=5;dashed=1;fillStyle=dashed;fillColor=#e1d5e7;strokeColor=#9673a6;" vertex="1" parent="1">
          <mxGeometry x="155" y="-95" width="1100" height="700" as="geometry" />
        </mxCell>
        <mxCell id="suRE_rHokEg1OIpaxFs9-219" value="" style="rounded=1;whiteSpace=wrap;html=1;fontFamily=Helvetica;fontSize=11;labelBackgroundColor=default;arcSize=5;dashed=1;fillStyle=dashed;fillColor=#e1d5e7;strokeColor=#9673a6;" vertex="1" parent="1">
          <mxGeometry x="155" y="631" width="1100" height="300" as="geometry" />
        </mxCell>
        <mxCell id="suRE_rHokEg1OIpaxFs9-247" value="" style="rounded=1;whiteSpace=wrap;html=1;fontFamily=Helvetica;fontSize=11;labelBackgroundColor=default;arcSize=5;dashed=1;fillStyle=dashed;fillColor=#e1d5e7;strokeColor=#9673a6;" vertex="1" parent="1">
          <mxGeometry x="155" y="957" width="1100" height="300" as="geometry" />
        </mxCell>
        <mxCell id="9GZUrrSOMpWSvkTZttJG-399" value="设备" parent="0" />
        <mxCell id="3usm3lNUDULSkLaVxLEo-89" value="" style="shape=image;verticalLabelPosition=bottom;labelBackgroundColor=default;verticalAlign=top;aspect=fixed;imageAspect=0;image=data:image/png,iVBORw0KGgoAAAANSUhEUgAAAGwAAABuCAYAAADCrvbGAAAAAXNSR0IArs4c6QAAAIRlWElmTU0AKgAAAAgABQESAAMAAAABAAEAAAEaAAUAAAABAAAASgEbAAUAAAABAAAAUgEoAAMAAAABAAIAAIdpAAQAAAABAAAAWgAAAAAAAACQAAAAAQAAAJAAAAABAAOgAQADAAAAAQABAACgAgAEAAAAAQAAAGygAwAEAAAAAQAAAG4AAAAAkSNo6wAAAAlwSFlzAAAWJQAAFiUBSVIk8AAAGW9JREFUeAHtXQl4VFWWPlWVBcIS1kCAhEBYAmEH2VFAFGVztJXFhUEdte1lbOab/toFW+xWu/1m2tZunW792lGhQUgruOC0AmGTPRAgIRBIIIQECHvYslaq5vy36r7cV1WpqiSvqgLW0cq77767nHvOPeeee+4CURhuKgqYGoPtvMXLO9gsludNJvpXLqdDY8oK5/VAASYs2W1nyW76iznC+qflLzxyucEMu/+NT9pH1zQ/YjJTe7vd7qG2cJRRFDCZzcw327Eaq2mkpSGFPvr60ngTRWeZTKaOFGZWQ0hYvzxMY2ZaOxPZb9Rbwha+ldb89A17MUtru/rVGk7dWAqwHiuqF8Mefn5ZW1tLyx6TydwzrAYbS/6G5LdThL/ZJi7eGGG3nMslMsWFmeUv1YxOZyK/xrAFiz9qFh1RtYf1aE82W4zGIlxePSjgU8IeeijNUh5pP2ImU6LdbqtH0eGkgaCA2Veh5iG2bWYyM7PCkuWLVsH4XqeELV682Jxr7ptjMllSeA4QDFzCdfhBgToZlmvpt4HHrDCz/CBiMJN4NOvnvrZyDSMxln/VwUTmB1IXhqHWZDJFNcTp4MYwGBk0nFpGVVSFB60A9KAqioqIiLR2s9nNb0VERN9ZY62qVy1uDKtX7nDiRlFg3m9XfGo3mefWZ6qkjWG//zzzdhvZXrSTPVFg4TThhb3BQixenZYiRE9ajTaOg4zbOJLzKlltOolHehtx/9DK4NRShjmzDIpSnC82rhRl14iE+rwyA9ci6nTYRRwWr2ocDCZ2nmpTEq7LaUMhr6N8FOHII9uFV2DswFE4X4G9I5UTceR3VCef+u81XI+gjaMc9gPasyIjTK8ueX72SdRYUVP1XJQl+h5287XBuz9gSktLsxyPSv5Ls5hWT5WXXSd7TY2GBAoAQwDiIcPiXcbLJ5CtDSODM7kzv2yUlkow2flRSyu+cjHyie8goihZqV9m0PBzJERGR15+t6EXOUEyQj4RLcMoVsNKIu2ss/bVUZZ4d0Yij4h1psWLfEf5wE0yGVnMFp7NWqKopqr87k9fmr0Oaea8tnKH2WQaLXFBnDcwH4vsNZvdTU+VX78KF763tOFvjaIAyysLg7WqHB3lXbj6HMXZc7F84i9wStuLsrf6mymcrhEUcEhn23g6I9SgFE5/SzSbTeZUf8XR30LD6XxSIMISWRPpM5WHBGZmFtRsGJooBWp4HG7fOobwBPivPJtog25ltKxsZk4Zlkzv/nwGDewRJ4wYzay/lRt+M7at2lpD8+8aSrPGpgj0I9jCBIQZJsjQtP5gOvKTWaNp8tAeGmKZeWcITAszTCNJ0whAsp6fezuN6NtVQ+izzQfZ9egwNcIM08gS+oCF52O/e+ZuSupc6/g4UXKZvtyRSxZzmGGh55CCQQ07LZ6ZfpuOWVuyTtAH32SQlVWkNOXDVqJCtFAFMZeOjWlGE4fUjlk7DxfRn7/YKcx5ySzgF1aJoeKSUi+k664RfbWYz7bkEH7SMtQ+cCAsYSo1QhiOjnDIzoqN2bQs/QAbGZ6RCUuYZ7oENTaCjY3Pt+bQtxlH6fL1CmoWVTdb6v4SVJT9rwx+T4eXxuGqkUsYdXZJ/4sOXUqWJpjzpfyrS7Ikck2eYWAQ/GhgTASbth3Zr9YqJooiIyxsOZmosrqarpZV0fmrZVTNrhxoEjRazltkQ2+VZ5NjGPxnIHq3Dq0osUNrSuzYmrq0a0lxbWN4N4T3jcpV3EPPXr5BxReuUuG5K1RQckU8wXQ5j7kZGVdZbaWoyAhBlybFMAuLxqQhSTR5cHeKjvTOHE+EB0MTmMH4jenXTSQpq6ymdZkFtH5fAUsqdwauAwy8WQDj2Qvzbqe3P99O5VXW0Jv1kIo+8W1oTEpXGpTUkXiBzlBaxkRH0n1j+tCMUb0oM7+ENuw/QUeKLzaoQxiKmI/C0KmSOrcVzIpt0YwGJcfTjkMnQ8swSMQTUwZQ367ej5ph/IJDFM/S65VUeqOCyiqsLC12iuYe2JYb1KZlM6H2wHDeI+FGDrh9buvTRfwOnjhHH609QDcq6rfFzK3QAEVAAXRq24p+s+BObRjIK77AKtEUfIZBGVVZbTR9eBJNSE1g48HzVBDqK/vEBcotukglpdfp4rUKulZWSRjjVLBxOpQJRrVuHkXtWjbnxsZQ/4SONKxXZ48SOyApjl5fMInS9xewn+6IIIRaZijDMLBGsrZZ+KNx2rh7qPAcnbl0XWiFoI5h6DmtmKhPTx1EHVo3d6MLJOgaW3zrWG1tzz0ltqPBWIB6EExhyYFUIiz3odj4u3jlPzcqqulGeTWdPH+Fduaepg/+mUkTBnQX6jA2JlrHPIwN00f2pn7M2LdX76RyHtjd5VIUHbQ/aOfQXvH0nw+N1+qsrK6hT9bu11R40BiGnpOa2J4eHNuHmke7V1t47iqt2XOcTrJ1Z2UJFGOZZ+HTGuMtAEabmLnbDhXRrtxi6ske8H/hxcCePF6qgPc3Hp9M732dIca2UFqTY/on0nMPjNHQq2CD6dWlm+jE2cuamm8ESbRyfQYgOQO6d6DHJvV3Y1Z5pZU+23qE3vpiDxWevSLGKSMNDyGhjGH+mcv0+oqttDQ9223saslS/6vZ41iFxkvB9dkmoxNgjH7inmFasVD/iz5K1zELHwPOMOYV3Z7alR6d2E9DRgayT5ynN1ftpl28mtoQM16W4+8TdWzNOUmvLttCWcfPumX76czbaGTfLux10I+TbgkNjoD2GZuayA6BaFFyCY9Xv/zgWyq6cMWtpoAyDIikdGtL9wzr4VZxetZJ+nhDjphbeLLq3DIYFIG6ME7+cfUuWrv3mE6iYFw+PW04jejDkmZQff4UA+nq3z1OJD3Fk/5FH62nKzcqNTWolhFQhvXp2laoQbVCDKwfrs2mtTyR9bR8oKYNZBhGx+dbc+lv3+5zq+aZaSOEUQTtEAzAlGPTgQLuQPn04v+uo+vldU83AsYwqJ8Hx/Z2a+9KHq+O8njiTaogmTDf4RuEee+NcKCpSMtqzJHefypDonbwQuFf1+wVY6dEFlONVx6dSDEejCOZxsgn84vyT1+k99dkUBVbhcCrLnA31+pKWY94zLN+PHWgMOHVbB+n51AuexkczKqbsBNSu9EAtijh4C08f5U2ZRXSZagItTAOg7ExzSLpbnZnJXWO5cby3K3gHG3hccpfwDQBHpDlG3Po0ckDtGzN2UPy5L3D6N0vd3vtMFqGRgZAE+DiCwLCsHEp8dS1fStd3VsPnaIjpy4JZnliFaRkSM84mj0+hdeDahFP6hRLdwxIoE3ZJ+nrXXka8aD34XK6k/2OKqQktKeZo3vT8k0HaW9eifqpzjB6NNQR5ob3jEjW0g3p2ZlSeWzZf7yE4OcMFUDDyOpdO60hON05KFFXzrGSUvpq9zHheNV9UF7gR5w/OVXHLOUzTRyYSA9PTBWTW7HJ8s6BbsyS6TE+PX73EOoeF6sxWH6r64k88HrA26/CL+4fRc2jGrQNXi2mUWH4EjE1AhjKMJjD09gibMFqSgIkZ9X2fIp07lyV8eoTuNw9NEmN8hgezq4m+Ax7slN0eO/OHtPISMjDT2aO4B1H/pvoVj4O9MdVO2UR4gnv/oxRfXRxwXoBkzA3e3/hLBrUo7Njjmpk5VApo/vG64rcknOKLvGytzeACuzSvqW3JNq3sf26Uu8ubbV3b4GW3HFSE/2/xhHMOX/lBq3cnKMrdhKr3WArRDgPfskuqruG9xK4oOMDB0MlbBiPQSpgf8LafSc0J6b6TYbRi+J5gdJfSOBFzXatmvmbnDq3bVmvORUIBXdWBa89SWjRLIqmjuglrFAZF8hnNC9WvjTvDm33L3DJLjgrhhTDGAbCD+UTFiqsP8DrN15UIdKi18CU9RcqOC3W0PwFmPr1hevllfQdGyEqPDC+H0X5aIuaviFhjFKwjF+ZP4n684qChKXr9jMdHTJuCMPArO4dW/H44nCtoCKMHUdPXZZ11vmEGjrDAz1E3h/Yd6yETrPrxl84fBLrSPUDTGS/YgNE7UjoeKkKEetXon+p27dqTv/19FTqwWO0hO/25IlJNegEMIRhmA9NZNNbhZzCi3TNy4xdTQvvx/7j59Qoj+Gr7BDNYQYcOnmRN9/4ljKY9WdL9Vafx4LriPz+YKHuC0x8RjUgAAfBv907gtfyaoeHL7cdpg/W7NEsRFRsCMNi2CROimuta8i6A4U+1aGa4Yud+XTxqnfj5JP0g0IS4br505cZXol34UqZmIs11KmMiex+dhCjM0nAoToQ1mjg/s6bjmJpaO9agw1ej083ZvHmm9o5Keo1hGEdY5vrFgdL2Stx8Wq53+0CUSp4AfGNf+ykvex1wLY1SC1UbRkvv5zgZZfXVmynPJ54Iw5QfOEa/T5tu9gVhY02iK9htXqFpTDj6Gl6ZdkWzuuIryW5HiXEY4DH8oqnNFibAx4SurAzAGOM0YBV8zsGJ4li0Q4wK32f53mrIZ4OLMurvsECJrC3hUAgJccVrCX37tKO3TKOvpPF2wLyT5eKdTPM3TBJvs6ryJgESyl28oyZRLQlu4gJHkkRTEhcW1FRxRsyec/H4B6dNOkAwy9dK9fhhE7Sis3+X80ZT5VshS1ettltYn/5ejlBUjsrVuwgLndf/mlde41goFzS+TWvgeWxXxHjqCdoNMNAvDiWMBXOXLohGi8Jq36DR2FUn8681nONjpy+TPMnpdJAXtwMNLzzxW6xoozBG5LYhzf+/MePxjCeJLZHW/g+d+c1KRoqDrVYQve0c8yF8CG1e0fae/QUX5Iiu5yWvMEBGDRpm7Jpzc4j3OGqvXYGz2ysR9WQlg5s3ahwiXu4J4CJff/oXjSVvSGzRvYSiCXyhtFgAMYfACw/7FmUzBKRQuvVqj4Rx3/AsFw2clToyZN2tNlosDDTsGFUWoN1lW+AhNkptkWtOY+KoMI8ARraqW0L8UnOK7y5rDyV0dA4qMCOsTE0iceKiYO6+1UMiIcNPSrEtWnhk6hqeqPDjWcYY4TNmipgh6pH4I4plxBkH5VPj+kNjBzPS/CTBiXpjCNfxUNdYm+FCsDflzNATW9EGB1d2giNVolAKCpSX4w3h6sUeeNGAP9IAvO+IZt7VCsRNQHvYGkFGFzJ8e3otQVTxPwMmrjREoZGSO4j7AtgwgLMdVhBvvL/kL4P792FXnj4DtHkxLg2vJn0mjEMgzGhmh2wuDwBVAx8gQB1QuopbVOJc5VKqHBXqTMaVxgfdw3rRU/PuE0rOrugRIydnimrJfMdgIrA3EcFdcVYjcfcAlvboJMx1wp0w9W6GxIGc5rzNEQFdDSoqkDCzNEp9Oyskdq8cefhYjGWgtZ6bBqABcYk+AzVuZi6gKkWicn0Jp7o5hZfYocvX6YJpdyEAfh14+UcFTCZDoRZjzrgAH986jCapiyYVrCnZ8m6fZqHpfESxmyHF0GFNs4NkWqcGoZ3/mYA7Bvp3bW9DtUidldJw0n3oZEv6Lszx6TomHWZ6frsO1/RJT5dKqHREgaD49wVPcM6tYlh6ZFV3LxPSNKQZP1WhCN8mqY+RpZfrWdaYXx/ZPIgLflZ1kDYUIopktpBGs0w1HCBewIYhEoBibw2ps4dHLGh/Qv1pjbcH2wwv0xwWYWAB9/VEPGnLG9pMJZPGdKT4O0AHOWzYC9+uJ7VIN8R7KSpzN9olYiCLrBnXtXrOJPc0GUNiZjRz518fCnt+0M6PH3VkdAxVueELePjTOd4fc2Fhr6K8fkdtEuKdyxaZhw5Ra8u2SiY5SmjIQzD3g0sq6swNqULW4HGrx2pddQnjAXPdN4e/sqSzX4takJjpCR00Km/wyfPGy5daAMk67uMPFrFHerNT7d47VSGMAyq5vtDp3X0G9evC7twfK8dGd1bdUgoLxh3MK24wAP4G59upcNFeqeuklQEq6xW9jkm6aKxq9jw8YtrYONZ3HyQtjmbIl0WLHUIIK1rREPeYa7vzj+ruyce85ceLvrftWzo5yo2ZYMBqrRjE8/bq3bxIe8irWplnVK0Y0SfrnzXruoOIDrIR1cDCf6MsYYwTDSCVcgBnhRLQOWQMm+ba9Bb805fklkC+izg3ccqwHBYsj6L3vsqg77idSh1LQwq6rEptRYb8uXwQfYSttxCDYZYiWgEpCWTN9IMVfYm9u3Wjp2XbQgr0J5UH5j62fY8yuDNMlGsPpnnrM85JQsdCAiG4ocw1qgR0layOTHS4yYBvsodKDA4IpEa6lhOzM+XlgnpcPWyIz+sPsy3RL0ogSMH8dpZmxZ66cKtA8Fy+qIlEoDPxME9aFtOoej8hjEMFeSfKRVb1uKda16Im3t7X3pr9V6vewlxvhmIAUBsx/+Op4jjj+KzM5EaltapFieyiTedinZllqiM/6ADyE6BOGiEJ3hfPjqghP28te7StTKOwwF5GRv4J9r2xhN3UTJvoSjn/Sk7c4uMGcMk6iDKss2HdY1qxbtmx/H26oZs6JTlBusJZjw7YwS14E05KqzZnae+BjwMzYDNPr970sEsVIiJNPqQ1CWGIIFeeZX9ihm880mFKUMS+QADnyRRI5tYGMxK6daezzjXXo4MFLfxWTPXbQKBRh1nnf/63Cy+8cBx4QxcVEdwsQoT2FCGyYZ8l1nottFzAR8lwsUnTZFp0sn7HB8tUlUhfKRL2TBx3Rso22n0E5ZsXGwLevOpqeKgoiz/o28zNUdEQBhWyWbz+98ekPWJJ3ZL/Xz6kJAM3DpEXF4gWTh/tZCZ5TrO/T09S6hyZThzyW3sKzwr7/xsOh/2qDV4vth6WBzrhXQBAsIwlH2e3VXr9hfqWoQNm/8+c5jYgwhChRqAA07CvDRvPLV22Ui0fEM2b2o9EzQUscb20/tG6+p778tdtGzDAV1HCgjDZK1r9xXSgYLauRnicYbs+QdH8aS0GRsnoeMaTHns4Hpx3gRxSFDijCf8eRv5VH+wzHjg0rdbBx6zHP5E7Jv8739so437j+uYBdwCyjA4gD/nedZR3jCqArwgv+DTkcOTO7mNdWq6QIShWmC6jx+QSIsenuB2cB7XHOGOqmACGDZuYHetysVLNnCnKdYWLbUPHAgow1AR5hIfrjvIt7LpPRpYOpgzIYV3/vbnO9ujg7JdAMsYLXmaMX/KYHqMz0jLLXeSIPuPnaUPPdzbIb8H6olOVHLxmjj9+dx73wiLEHNDT2DoxNlTBYiDavn75kM087ZkGuVypHYYSxmOtW4+WET/3FPAHgf2XogZR12l1T8eihfzwHuHJ9P0Ub01i0stCQfSv+H5ViiUNLws6/cdp81ZJ4SDoa599cA3KAxDRRiu0rYdFXs5ZjDjVIsMqhOH0jHBXs9X7x3iVV2c6+LluwYvZ0Cy4eTtwJc6p/LefVzngLArYEV3Fd+Ik+5hvHBNG8h3jOf+nCwNGsPQWDBm19ES9utdpB/fO1gYICoRsHnnPr5jY/rIZHH9wqasInHQz2rD7TC+5Q6NxhIc/gnglMSONI07Ro9ObWr9j2plHMYlXH/gWwNwr5PagVySNanXoDIMLYdmvsF+sT+szqA7BibwTW8JblcE4eJ9XMzyCI9v+OE2zmLoeHbi4uxYGZ/wqHbubwQjsa0OF2dCgpAPt+LUNQYAB5xd+44vBluXeVxMioFTKFQhcKkvBJ1hGoJMpY285W1LTjFNG96TxvfXu4S0dBzALQP1uWlAzesaTttyiE32EyJabmO4WZgFpEPHMEEyxy7aVTuO0ka+jm9ochzBCMGeECPhIK/T7ck7TZm8jFPO0nmzqD9PNAg5w4AUrEhsRt1ysJg28EVg4p9mGtiN52nx4iQmLFxvKk42TIxhLC54nuIDg5v5fqrdfHwWPjqoPcDNzCxuWVWTYJiDlI6/MGlxAeXqHfm0mifdcB3hmnO4jlrzP+EBBzL8kvhnPTCvwtlonEcr5WNB1/mHDUHYt4HzzTBTtPUuZuJNDdxr7TZ7ZpNjGIgKiRIH/vifmIaRASsO5GaE+cn/OaUIafEu7EeIkPjgiMOkGB6EWwa4bSab/bWAezqMJJhUjdiPAcmR0oP4WxkiovmqJrvtvRW/nvt/NxXDbmWm1Nk27o3VVRV/W/HyvJ+x6rGHGVYnpUL/ISKSz47baenKl+Y8JbEJM0xSook9xapCdcXKFYtmz1dRCzNMpUYTCVsiImE/rVmxaO5cV5TCDHOlSIjfTTytsVqrv2bJmukJlTDDPFElRHFmXlvi1eatKxfNmVUXCmGG1UWZIMebzDxvrLGmp708Z4K3qsMM80adIH0z4Z6rGlsWj1lTfFUZZpgvCgX8u8litVZlltQcGu5PVU3SNeUP4rdKGmZA/rKX5i7g+bFffjR2gt/ifp0my1nHdoXlL8/5rb/MQlPM7DzljfBhpgWZr5URMWb91Qt+ImA21dj/x8zrUWEIDgXMFjEK7fh44f36E4Z+Vm+OMlv+bKupOWpms1Ksa7hlvLWkL5RDAKxBq81avGLRnAfcyOxnRMTC+4eWLl69cVS0PfZJXm95hreHJfD+MseiE3iFoZBPOQoQYY5yPhEn2elIId/4g5JGyysCzj+ODGqMW1jUw7F4iuTOPFhRljVraURuRwKskQkA3s6gEmCcZaR8IrUM6594kzGiTN2LiOE/3G5nvPpZhoEv/05xwo/tFtO7Mlf4+QOgwP8DESAEDyPte4gAAAAASUVORK5CYII=;" parent="9GZUrrSOMpWSvkTZttJG-399" vertex="1">
          <mxGeometry x="2012.86" y="-497.14" width="62.14" height="63.29" as="geometry" />
        </mxCell>
        <mxCell id="3usm3lNUDULSkLaVxLEo-90" value="" style="shape=image;verticalLabelPosition=bottom;labelBackgroundColor=default;verticalAlign=top;aspect=fixed;imageAspect=0;image=data:image/png,iVBORw0KGgoAAAANSUhEUgAAAGoAAABsCAYAAACCeCeKAAAAAXNSR0IArs4c6QAAAIRlWElmTU0AKgAAAAgABQESAAMAAAABAAEAAAEaAAUAAAABAAAASgEbAAUAAAABAAAAUgEoAAMAAAABAAIAAIdpAAQAAAABAAAAWgAAAAAAAACQAAAAAQAAAJAAAAABAAOgAQADAAAAAQABAACgAgAEAAAAAQAAAGqgAwAEAAAAAQAAAGwAAAAATNeMgwAAAAlwSFlzAAAWJQAAFiUBSVIk8AAAEbpJREFUeAHtXQl0VNUZ/t9MVhIIhKAEkT1oBFlaWcQFoVEUa8tBRcCDrdp6XOsph7ZH6pJDsVr1UM6pbcWq7RG1rJW2esADCogsRUEhLIJsBgiYAIEAWWfm9f/ufffNm8xkZpK8yczAu8nMu8t////e/3t3ef+97w6R45JCA1prSnnnC0uGpng9s5jJOCIttTW8nLwWDWga6T79FF/eSvXUvTy/+L7yFgM1+fmFD5BOr2ua5tZ13SLF8dqlAc3lIl33lWZq2jXuljCd8vyimznfQv60KH9LZF6UebgBMFg59T5db3aLmjJ7yZ0+8i7mjM3Oe1Eq245K6/qJZil76uyFN/pIX8kYpdkh3+ERpQZ4sHJFSUpTnn/vZh/RagekaDVmIx26wGjY3TN7wUiNtFVMmxUNvUNjvwYiAjX590tGkM+7kUVHpLW/eA5HpYGwXd/dzy8aonm9KxyQlLrid22ylUx5cckAavBs1zUtLJjxK/rFJTklVHWn/W5BYb3H+6nL7XZpzrNsKBW1KI4fXluUD5mCWtTUF97t5PGlfOjSHZNQi7UalNFHPtLS2c7Qm1XejpOb3UsFARUkw4mwTQMPzZuXeray4626R5/PgOU0h3EAUHMWbcisorrWmYUqwosvD58cIdXKvAvTWsMRskaT3Ihdo2A0HIJoMrJydPf5Mu8/iu+vVYnycce1jkgPOfQoOutVAFW8enVG+qn289igNJwNrJmCwOhPfWKM0tn+ys4rs8qe1hi8+GEMNAYFGxElDTymn6PYXCUTEA+fD92BilKZmA97FS8QwuBrpio/iLjkPq9Mkd/MjT2KGsWX8ZKHIckokywz+h+vKgRyigz4YvsLfyNsRhlhNmuzDxQqjSksspBJ5uWHVJRRWqzPsbWuxN0h6+F3fzG+Cvnvmb1wpcvlLtJ9hlIRGcalFC/akJt+KvVrze3qorPygJwonDl8ISTw5ItMMQgEW5HKybKSYSQhySTiyqAWyhlshWR/AVRq6KulWIKgkdlSARaY2WDOeZUYFMNPaxSkES9RLpMRL0HwH/LDiRwqIKNCfvPceaDvzJm+NxWvvm5N8RgPGxDecKekFHnqowPKlZ6W9mue3QmQQkpwIm3RgOgZNNeQTmmVYmxyaW4eBaJA2JDuIp/2oNkt2VIkh0lTGnCnpKVl+vRspHOXFz1KTO/ipp/n75KaEuHE26IBhqZBr86Ilpcc3iR1s+fz0Qpx6FqnATY10HUDe1JmupwYOkC1Tp8xye3jafTvflpET0wYSSMKL+cJsk5Rz+NjUiKHaYAGMFdon5lOM6eOpt75nURa2YkqMc13gApQVXwDOVkZNOfh2yg7Uy6gnz5XSyUHv6P01BSnRcUXGindy0/dl3XJoWfuvckECSmvffA5paVIQ5HTohIAqcsvyaGXHxpHLt4eptyryzbRl/vKxLQccQ5QSjNxumIKft/NQwNAemXRZ7Rp92FKNVqTA1ScwLGKxfgzuG9XEQUL24x5K+joiTMBIDlAWTUWBz9meVdcliskV9c10Kz5q+lIxRluXcFGC6friwNASiTMQgeOnaYDZZU0651PqLbBGxIk0DtAKa3F6VpT30AzXl9OadwFBrcjf6EcoPy6iJsP41QkF5kiEocw6V42fXixQMh9MQZKZfzFeg7CYi0HfqbDCg9WetgLQoKtK8UyXQ0j5qJIig1QrOzMtBS6snsuDezRmc0ieNL2N2wJkEW/ZoRcFa3jvnr34ZO0ee8xOnO+zprVkunC9kJbl+ZmU8XpanGz2w6Uh5+yR/TPp1uG9KR2huW3JSrtdWkOjR3ck1Z9eYhWbjtkPvi1hFey5amt99CTE6+lmwb3pj/xg+9nO761dzKBh7dh/brShBF9bdFNeqqbbh/el+o8Xlq7o5Tc1uV7WyQkFhN0LOjufzP5BhrJVnO4mtp6cbW1RXVio+IPh/UWjO38mjiqP3eBbKA8ZMe+IDtLZi8vPD4995MxVNCts2Ds8fjo871llOJ22deiMDko6NbRNCJCEtZRdpSepP3HKnl64Hdq5VLE8ZeYaIhkMc2gnmygHNa/a0B3d9v3+1ywQEEfWRlp9NSUG6mfARLU8dZHW8znKttalIdnd/2NNRQFyZb939GyTfs56J/NATEBh7iCUs761L4ggLdpTxntY3Cnjr5KrMWAqisPrAN7dqEvD3zH3YN/YoK0ZHcd2qXTH34+jjq1lzv1UJ//btxDq786aN6sfnNta2vLGs5IC3wx/nDFWaFofiFbXlkGhpnAD9KMdCMNT+xbGeTy0+cDSvXALYOoR5cO1MATFnwwccFH+UPFqzhx5bEuIGzkVXGCF3c3uLbVhh/cmDDKWkH65yfb6c0VWwLqbluLklwh1u8CQ/746Hw6zV+9i2ZMHBZA/ssJw2j/8dPGs1cjCY2CKiM2S6INoiUL1wQd0tANVZw5T5+WlNKB45X8PGffvSyFB367uWDXXd3TjPzj0o30v92l4vHGjGSPzUBZWbfOj1Z2hJehP9t5hK4f0N1khoFVGTLNyBh4xvDUeOehcnr74+1UXnle9AJ2i0Gr7dc9T95E7AdIG3eVislDY1mxvV0aS2tmGKAs27iXSsvFLuBm5m49+YBel9BMnipnGUvjrecYyAE3Y3nlOcIK74x5H9Hmrw+HBAm5EhooFBC91Cvvb6Y120t57AjTZ4E4Bi4nK50eu2MY1fFDqN0O3XHl2Rq6a9YCsQYF4JpyCdv1WQuMlvWfzfvow8/304CenSk3O9OY0kvgxBjEXhkywLReuFuBE2OUEa/4yyQZCT54yB47qBe1Z4CUK+yRR1fyB0sSdjuAk8HmtkguMkUkDm2YDgMvZoMw4sKpmZkIQePi30gzaECnntusfhUns8k8iMPng0176KWf3cIzMf+m1kG9uvLz4GmLxRLc2s4lFVBQi5iFGW+VhAVKvXnCeRQoyC/8AMRQeWOgQNPA0/gtvLGkaGgfBIXrmM0tTOKpomJ+xQoCViDgEn6Mirk2mhIABC0uMGRJiIG3lhcTx11TQO88dTcN7Zcveo6YtyhRQUulVYXVNaieKkFdFYHBAy1CPhPJG1z51RXZGg/JKi6gZRl0SLOKEn6WYY1TRWiLK8o+rWgoTbzhKiFOLSrGFKgBvBaV14H7ea41BmqrM1UBjTQC0lSS8JghwccS4mz+R1nF20wXAmUoQLZFFvJICiOXcYGN0mpzU7xjfUWX++iPhtPYof7Vh81fHxFmpJgChYVDfBwXWQMYe5+4aySNGtDDJF66bhebvLxiXI4pUJglVVTVGC3BuF2NYpg3Nrd1a5ckks1EpJnllknWTimgIXBA/gdmQMhgIsitfqO/RLzwCgLMJn10RffOdDlb8dvCAaTf3juaCnvgBXLpvtp3jJat32WasGIK1NYD5TydLhdABCoJ02ChVy4V+8XMRmoNoAXQmmFUQFrh5Vu0chkFz4giu8EQuUUcRyJK5FIecDD8/qu/HMiALB7ugqYVDW4zoKaMvToApPW8SPry4nVs7/MbuWMKFKzgmGLifhVTaaU4oTClIKV2jkQ800olcj6mN4ETibqcphrK9hlTcDF1RZz4l0LAVTkFimQBIgGnSJbZQKvkSplttZKCshVZxqR/r99NC9aUBICEgsYUKKEJ56tJDeDm7dM1l9INy8RCBmjRmh28x0++wWHN6ABl1UYb+9HX1HmkDXEuW8438fJGKJBQLAeoNgbHKk4t5fBhysICIYcJK4Xf71gm/LqIiw/jOFw4kJCesC0Kg7wY9NkjvBzU2C9meMZEAX08qimfbTFJwD+o5YQAvnBLB4IwSb4SEigAkMtbz7IyUg21Q/PQKMOgrghJ1IJoQClmmXzFTlO80mLcuEhKGoe9G3xkorgZEw4oTFcL8nPpkfFDbFPojNdXUTUbOpPF8aGWNKRvPj16x3Ca+/5G+ubIicTr+vCqAPZKVFXXiy3RsiMLVrHs2YPj/TF48NXoW17Gr6qtS6oXDsYM7kOPTxghqpKf2572Hk5AoNDOsYV55ttrRXeHLszo7bjg6Pr80KnuTabzt/iX6TCsIoy399JSkmPOVM8vR4wfXkAPjr/GvN+28k5ZjeuQcF2fKqFYnoauFVBIUH4DrIhAGcys4Cr+iXidMnYQ3XXjALNoa7YdpNPVtZTK41TCAmWW9iLwoPXff+v36NZhBWZty05W0burtgmQEOkAZaomfp47Rl0ZANIh3mD6q7+tCBhXHaDih4+QjG759hFXmKXY+s0xmvuvDQEgIdEBylRR23sAUre8DtQpW+52Ws8vrM1Zsl68eN24NA5QjTXShmHMT/EKLRyWN2A9x9vxoVzo2FCUTpztGoCdb1/ZKXr81Q+o/NQ5YYVoSkhyPGA0VfoLIB5gnWAzF0xF4Vz41HA5nTTbNBCNHdIByjZ1288IlgqMY3AOUFIPCfWNbcxdOmbRs9PGUH6nbLFi4EwmEgoiYSXjl9Zz6bn7xogZYCG/t1x28qzzHJVIOOFd4oF4eY4P/1VHlO44WC5WAZwWlSBIYSwafXUveoyXN9TyfAmfAHCUbX4AzQEqAYDCSu4P+BWfh3mhULlzNfX0xvIvzJblAKU0E8fr6EG9g0B68s8f0nlsITDKZStQxhYGs8rKPGJGJIkHLz9n8UHxVicWIq0RNvmxpjbxhkKTGyYOs99ZEwASEm2bnmMltbyq2hQIz3A+JseNgxSSyGFNsh/Puq4t9B+ZgOJDgebtbVN9YJTNy8mibp07CI4H2Jw0/a/LqfJcTZAo21oU9qXt5HOPhvPpYupJO69DJj1990jxRocfLrWhK0xt1VMek/i9fp+Z04jCBfxlsGk6M59Ja42Rfgzkl+W1D0rYxO8p+esQlNyiCJS0Sw5+m5L4jHNe3li6wdSdiLR82QYUeH5bUSVAuSTHf6ZPKu9X6JabZRGZfN4Fa3byZps68xUYu2qAm2LP4Qp6aeE62sJ7I0Kdzqxk2db1gSH62zdWltBxPunkQnEbdx2hlVv2NXlQR+vrqdEXEUCCDFtbFLqGGj444y/Lt/Hhiv1oUC8+PobvGtUVtr5SEThYe71Q/ZQ1PQwr3HA4hXLR2p30MZ++mR7jXUyRtjOjqLYCpeoOfSxev4eWbzlIuXxWAw70EDuBhKLkGIVB29QbAsKpNCMcgkaSNqJTeRUbDssDhSVXJUnlhWBFKsthhEQ8g8TT4uN8sllNnUccECKMbYpVnK4xAQp1AThoXUdPnhNVE1u7DECgZqkgWWu1NRnqg8oEqEiC4pjQUCMC0m/wETwlmUgT9Aa1dTpt8lO8FR8RhhgpwaQz0nGnm7KZNp7O1jEqnhW50GU7QCUJwg5QyQCUrpc5QCU4UBr/JDab019zgEpooHgy4/MebpeSMTdms76Ern8yFI4fPnk2us/XzjXorek/rnFaVIKCxuc8nWqnaaMWT5/ER9/YaD1P0PomabH0Q9ntXAV/nznJ/OkEp0UlGJT8rF3Dv8t2/ZvTJ52yFs0ByqqNOPt54fVoepZWsPjpSUcbF8UBqrFG4hT2ke7l6cPot6cHg4QiOUDFCRirWD4nozxF9xYufGYyfsgkpHOACqmWNorkpRjNx+Zjn1b03jP3fhNOqgNUOO3EOM1TV+up9+lDFz87qSSSKAeoSBqKUbqW5uZVFf32pcVTt0cjIgUrsOY6TDQ5HJpWacDnlduy3qspWUvFxQHnEodj7OIO8qTt+6DCSbyI03xeD+mp6WeECpoBEuh5I4w+zxXhbbeLWLe2Vl33eve7M70t+oEPF0865oCBy83HY4bYhYKzieBC7RVpdi1M/rZwa7Z4M4NZDhXT8vJEzonNPeKEsAbebzZd2e6U5GivQs6cFTtza6qrH+HAA3z4Xb4uDtWVuwX4d0sYJbbjIii+eFuYiPOHsbFAvRsn6aR4//nxxjl7Rn7sUYBXSuCruRcaKRDDV6P3Fn6wU3mNK6IC9kzg1D7+1zWZMWBziyWPHI/9wpEkpUq54AtZKAeKhatftozUWVEiXiRJIoSFGBGU+YX926fz7wfqK3gS/iI/J+1mMsddyBr4P5H1Won6/5r1AAAAAElFTkSuQmCC;" parent="9GZUrrSOMpWSvkTZttJG-399" vertex="1">
          <mxGeometry x="2206.47" y="-499.36" width="62.53" height="63.71" as="geometry" />
        </mxCell>
        <mxCell id="qfHB0enEs0YQk-gPigcF-9" value="Gi0/8" style="text;html=1;align=left;verticalAlign=middle;whiteSpace=wrap;rounded=0;fontFamily=Helvetica;fontSize=15;fontColor=#999999;labelBackgroundColor=default;" parent="9GZUrrSOMpWSvkTZttJG-399" vertex="1">
          <mxGeometry x="744" y="154" width="42" height="30" as="geometry" />
        </mxCell>
        <mxCell id="qfHB0enEs0YQk-gPigcF-10" value="Gi0/9" style="text;html=1;align=left;verticalAlign=middle;whiteSpace=wrap;rounded=0;fontFamily=Helvetica;fontSize=15;fontColor=#999999;labelBackgroundColor=default;" parent="9GZUrrSOMpWSvkTZttJG-399" vertex="1">
          <mxGeometry x="818" y="117" width="41.42" height="30" as="geometry" />
        </mxCell>
        <mxCell id="qfHB0enEs0YQk-gPigcF-11" value="Gi0/7" style="text;html=1;align=left;verticalAlign=middle;whiteSpace=wrap;rounded=0;fontFamily=Helvetica;fontSize=15;fontColor=#999999;labelBackgroundColor=default;" parent="9GZUrrSOMpWSvkTZttJG-399" vertex="1">
          <mxGeometry x="471" y="118.5" width="42" height="30" as="geometry" />
        </mxCell>
        <mxCell id="qfHB0enEs0YQk-gPigcF-20" value="Gi2/12" style="text;html=1;align=left;verticalAlign=middle;whiteSpace=wrap;rounded=0;fontFamily=Helvetica;fontSize=15;fontColor=#999999;labelBackgroundColor=default;" parent="9GZUrrSOMpWSvkTZttJG-399" vertex="1">
          <mxGeometry x="1024" y="88.5" width="52" height="30" as="geometry" />
        </mxCell>
        <mxCell id="qfHB0enEs0YQk-gPigcF-21" value="Gi2/3" style="text;html=1;align=left;verticalAlign=middle;whiteSpace=wrap;rounded=0;fontFamily=Helvetica;fontSize=15;fontColor=#999999;labelBackgroundColor=default;" parent="9GZUrrSOMpWSvkTZttJG-399" vertex="1">
          <mxGeometry x="1032" y="182.5" width="41.42" height="30" as="geometry" />
        </mxCell>
        <mxCell id="suRE_rHokEg1OIpaxFs9-1" value="二楼弱电机房" style="text;html=1;align=center;verticalAlign=middle;whiteSpace=wrap;rounded=0;fontFamily=Helvetica;fontSize=30;fontColor=#999999;labelBackgroundColor=default;fontStyle=1" vertex="1" parent="9GZUrrSOMpWSvkTZttJG-399">
          <mxGeometry x="338" y="-267" width="206" height="30" as="geometry" />
        </mxCell>
        <mxCell id="suRE_rHokEg1OIpaxFs9-13" value="负二楼弱电机房&lt;br&gt;服务器区" style="text;html=1;align=center;verticalAlign=middle;whiteSpace=wrap;rounded=0;fontFamily=Helvetica;fontSize=30;fontColor=#999999;labelBackgroundColor=default;fontStyle=1" vertex="1" parent="9GZUrrSOMpWSvkTZttJG-399">
          <mxGeometry x="2002" y="-645" width="265" height="77" as="geometry" />
        </mxCell>
        <mxCell id="suRE_rHokEg1OIpaxFs9-14" value="" style="endArrow=none;html=1;rounded=1;strokeColor=#3399FF;strokeWidth=8;align=center;verticalAlign=middle;fontFamily=Helvetica;fontSize=11;fontColor=default;labelBackgroundColor=default;" edge="1" parent="9GZUrrSOMpWSvkTZttJG-399">
          <mxGeometry width="50" height="50" relative="1" as="geometry">
            <mxPoint x="2636" y="-608" as="sourcePoint" />
            <mxPoint x="2710" y="-608" as="targetPoint" />
          </mxGeometry>
        </mxCell>
        <mxCell id="suRE_rHokEg1OIpaxFs9-15" value="" style="endArrow=none;html=1;rounded=1;strokeColor=#FFB570;strokeWidth=8;align=center;verticalAlign=middle;fontFamily=Helvetica;fontSize=15;fontColor=default;labelBackgroundColor=default;" edge="1" parent="9GZUrrSOMpWSvkTZttJG-399">
          <mxGeometry width="50" height="50" relative="1" as="geometry">
            <mxPoint x="2636" y="-638" as="sourcePoint" />
            <mxPoint x="2710" y="-638" as="targetPoint" />
          </mxGeometry>
        </mxCell>
        <mxCell id="suRE_rHokEg1OIpaxFs9-16" value="千兆光纤链路" style="text;html=1;align=center;verticalAlign=middle;whiteSpace=wrap;rounded=0;fontFamily=Helvetica;fontSize=18;fontColor=default;labelBackgroundColor=default;" vertex="1" parent="9GZUrrSOMpWSvkTZttJG-399">
          <mxGeometry x="2740" y="-654" width="119" height="30" as="geometry" />
        </mxCell>
        <mxCell id="suRE_rHokEg1OIpaxFs9-17" value="千兆双绞线链路" style="text;html=1;align=center;verticalAlign=middle;whiteSpace=wrap;rounded=0;fontFamily=Helvetica;fontSize=18;fontColor=default;labelBackgroundColor=default;" vertex="1" parent="9GZUrrSOMpWSvkTZttJG-399">
          <mxGeometry x="2740" y="-621" width="139" height="30" as="geometry" />
        </mxCell>
        <mxCell id="suRE_rHokEg1OIpaxFs9-18" value="&lt;h1 style=&quot;margin-top: 0px;&quot;&gt;&lt;font style=&quot;font-size: 30px;&quot;&gt;网络规划&lt;/font&gt;&lt;/h1&gt;&lt;p style=&quot;font-size: 20px;&quot;&gt;&lt;font style=&quot;font-size: 20px;&quot;&gt;视频监控：VLAN 10&amp;nbsp; &amp;nbsp; &amp;nbsp;192.168.10.0/24&lt;/font&gt;&lt;/p&gt;&lt;p style=&quot;font-size: 20px;&quot;&gt;&lt;font style=&quot;font-size: 20px;&quot;&gt;门禁系统：VLAN 11&amp;nbsp; &amp;nbsp; &amp;nbsp; 192.168.11.0/24&lt;/font&gt;&lt;/p&gt;&lt;p style=&quot;font-size: 20px;&quot;&gt;&lt;font style=&quot;font-size: 20px;&quot;&gt;办公设备：VLAN 12&amp;nbsp; &amp;nbsp; &amp;nbsp; 192.168.12.0/22&lt;/font&gt;&lt;/p&gt;&lt;p style=&quot;font-size: 20px;&quot;&gt;&lt;font style=&quot;font-size: 20px;&quot;&gt;AP 管理 ：VLAN 100&amp;nbsp; &amp;nbsp; 192.168.100.0/24&lt;/font&gt;&lt;/p&gt;&lt;p style=&quot;font-size: 20px;&quot;&gt;&lt;font style=&quot;font-size: 20px;&quot;&gt;无线用户：VLAN 200&amp;nbsp; &amp;nbsp; 192.168.200.0/22&lt;/font&gt;&lt;/p&gt;&lt;p style=&quot;font-size: 20px;&quot;&gt;&lt;font style=&quot;font-size: 20px;&quot;&gt;设备互联：VALN 1000&amp;nbsp; 172.100.100.0/24&lt;/font&gt;&lt;/p&gt;&lt;p style=&quot;font-size: 20px;&quot;&gt;&lt;font style=&quot;font-size: 20px;&quot;&gt;设备互联： NA&amp;nbsp; &amp;nbsp; &amp;nbsp; &amp;nbsp; &amp;nbsp; &amp;nbsp; &amp;nbsp; &amp;nbsp;10.100.100.0/29&lt;/font&gt;&lt;/p&gt;" style="text;html=1;whiteSpace=wrap;overflow=hidden;rounded=0;fontFamily=Helvetica;fontSize=11;fontColor=#999999;labelBackgroundColor=default;align=left;labelBorderColor=none;textShadow=0;" vertex="1" parent="9GZUrrSOMpWSvkTZttJG-399">
          <mxGeometry x="2636" y="-560" width="403" height="379" as="geometry" />
        </mxCell>
        <mxCell id="suRE_rHokEg1OIpaxFs9-19" value="EG3000SE" style="text;html=1;align=left;verticalAlign=middle;whiteSpace=wrap;rounded=0;fontFamily=Helvetica;fontSize=15;fontColor=#999999;labelBackgroundColor=default;fontStyle=1" vertex="1" parent="9GZUrrSOMpWSvkTZttJG-399">
          <mxGeometry x="509" y="41" width="82" height="30" as="geometry" />
        </mxCell>
        <mxCell id="suRE_rHokEg1OIpaxFs9-20" value="Z5100" style="text;html=1;align=left;verticalAlign=middle;whiteSpace=wrap;rounded=0;fontFamily=Helvetica;fontSize=15;fontColor=#999999;labelBackgroundColor=default;fontStyle=1" vertex="1" parent="9GZUrrSOMpWSvkTZttJG-399">
          <mxGeometry x="782" y="71" width="49" height="30" as="geometry" />
        </mxCell>
        <mxCell id="suRE_rHokEg1OIpaxFs9-161" value="" style="shape=mxgraph.cisco.routers.content_service_router;sketch=0;html=1;pointerEvents=1;dashed=0;fillColor=#036897;strokeColor=#ffffff;strokeWidth=2;verticalLabelPosition=bottom;verticalAlign=top;align=center;outlineConnect=0;fontFamily=Helvetica;fontSize=11;fontColor=#FF8000;labelBackgroundColor=default;" vertex="1" parent="9GZUrrSOMpWSvkTZttJG-399">
          <mxGeometry x="511" y="75" width="78" height="53" as="geometry" />
        </mxCell>
        <mxCell id="suRE_rHokEg1OIpaxFs9-162" value="" style="shape=mxgraph.cisco.security.firewall;sketch=0;html=1;pointerEvents=1;dashed=0;fillColor=#036897;strokeColor=#ffffff;strokeWidth=2;verticalLabelPosition=bottom;verticalAlign=top;align=center;outlineConnect=0;fontFamily=Helvetica;fontSize=11;fontColor=#FF8000;labelBackgroundColor=default;" vertex="1" parent="9GZUrrSOMpWSvkTZttJG-399">
          <mxGeometry x="789" y="117" width="29" height="67" as="geometry" />
        </mxCell>
        <mxCell id="suRE_rHokEg1OIpaxFs9-163" style="edgeStyle=orthogonalEdgeStyle;shape=connector;curved=0;rounded=1;orthogonalLoop=1;jettySize=auto;html=1;exitX=1;exitY=0.5;exitDx=0;exitDy=0;exitPerimeter=0;entryX=0;entryY=0.5;entryDx=0;entryDy=0;entryPerimeter=0;strokeColor=#FF8000;strokeWidth=3;align=center;verticalAlign=middle;fontFamily=Helvetica;fontSize=11;fontColor=#FF8000;labelBackgroundColor=default;endArrow=none;endFill=0;" edge="1" parent="9GZUrrSOMpWSvkTZttJG-399" source="9GZUrrSOMpWSvkTZttJG-503" target="suRE_rHokEg1OIpaxFs9-162">
          <mxGeometry relative="1" as="geometry" />
        </mxCell>
        <mxCell id="suRE_rHokEg1OIpaxFs9-164" value="" style="edgeStyle=orthogonalEdgeStyle;shape=connector;curved=0;rounded=1;orthogonalLoop=1;jettySize=auto;html=1;exitX=1;exitY=0.5;exitDx=0;exitDy=0;exitPerimeter=0;entryX=0;entryY=0.5;entryDx=0;entryDy=0;entryPerimeter=0;strokeColor=#FF8000;strokeWidth=3;align=center;verticalAlign=middle;fontFamily=Helvetica;fontSize=11;fontColor=#FF8000;labelBackgroundColor=default;endArrow=none;endFill=0;" edge="1" parent="9GZUrrSOMpWSvkTZttJG-399" source="suRE_rHokEg1OIpaxFs9-161" target="9GZUrrSOMpWSvkTZttJG-503">
          <mxGeometry relative="1" as="geometry">
            <mxPoint x="589" y="101" as="sourcePoint" />
            <mxPoint x="778" y="146" as="targetPoint" />
          </mxGeometry>
        </mxCell>
        <mxCell id="9GZUrrSOMpWSvkTZttJG-503" value="Gi0/4&lt;div&gt;10.100.1.1/30&lt;/div&gt;" style="text;html=1;align=left;verticalAlign=middle;whiteSpace=wrap;rounded=0;fontFamily=Helvetica;fontSize=15;fontColor=#999999;labelBackgroundColor=default;" parent="9GZUrrSOMpWSvkTZttJG-399" vertex="1">
          <mxGeometry x="627" y="112" width="98" height="30" as="geometry" />
        </mxCell>
        <mxCell id="suRE_rHokEg1OIpaxFs9-165" value="" style="shape=mxgraph.cisco.switches.layer_3_switch;sketch=0;html=1;pointerEvents=1;dashed=0;fillColor=#036897;strokeColor=#ffffff;strokeWidth=2;verticalLabelPosition=bottom;verticalAlign=top;align=center;outlineConnect=0;fontFamily=Helvetica;fontSize=11;fontColor=#FF8000;labelBackgroundColor=default;" vertex="1" parent="9GZUrrSOMpWSvkTZttJG-399">
          <mxGeometry x="1046" y="118.5" width="64" height="64" as="geometry" />
        </mxCell>
        <mxCell id="suRE_rHokEg1OIpaxFs9-166" style="edgeStyle=orthogonalEdgeStyle;shape=connector;curved=0;rounded=1;orthogonalLoop=1;jettySize=auto;html=1;exitX=1;exitY=0.5;exitDx=0;exitDy=0;exitPerimeter=0;entryX=0;entryY=0.5;entryDx=0;entryDy=0;entryPerimeter=0;strokeColor=#FF8000;strokeWidth=3;align=center;verticalAlign=middle;fontFamily=Helvetica;fontSize=11;fontColor=#FF8000;labelBackgroundColor=default;endArrow=none;endFill=0;" edge="1" parent="9GZUrrSOMpWSvkTZttJG-399" source="9GZUrrSOMpWSvkTZttJG-504" target="suRE_rHokEg1OIpaxFs9-165">
          <mxGeometry relative="1" as="geometry" />
        </mxCell>
        <mxCell id="suRE_rHokEg1OIpaxFs9-167" value="" style="edgeStyle=orthogonalEdgeStyle;shape=connector;curved=0;rounded=1;orthogonalLoop=1;jettySize=auto;html=1;exitX=1;exitY=0.5;exitDx=0;exitDy=0;exitPerimeter=0;entryX=0;entryY=0.5;entryDx=0;entryDy=0;entryPerimeter=0;strokeColor=#FF8000;strokeWidth=3;align=center;verticalAlign=middle;fontFamily=Helvetica;fontSize=11;fontColor=#FF8000;labelBackgroundColor=default;endArrow=none;endFill=0;" edge="1" parent="9GZUrrSOMpWSvkTZttJG-399" source="suRE_rHokEg1OIpaxFs9-162" target="9GZUrrSOMpWSvkTZttJG-504">
          <mxGeometry relative="1" as="geometry">
            <mxPoint x="818" y="151" as="sourcePoint" />
            <mxPoint x="1046" y="151" as="targetPoint" />
          </mxGeometry>
        </mxCell>
        <mxCell id="9GZUrrSOMpWSvkTZttJG-504" value="Te1/25&lt;div&gt;10.100.1.2/30&lt;/div&gt;" style="text;html=1;align=right;verticalAlign=middle;whiteSpace=wrap;rounded=0;fontFamily=Helvetica;fontSize=15;fontColor=#999999;labelBackgroundColor=default;" parent="9GZUrrSOMpWSvkTZttJG-399" vertex="1">
          <mxGeometry x="924.42" y="135.5" width="96" height="30" as="geometry" />
        </mxCell>
        <mxCell id="suRE_rHokEg1OIpaxFs9-172" style="edgeStyle=orthogonalEdgeStyle;shape=connector;curved=0;rounded=1;orthogonalLoop=1;jettySize=auto;html=1;exitX=1;exitY=0.5;exitDx=0;exitDy=0;entryX=0.5;entryY=1;entryDx=0;entryDy=0;entryPerimeter=0;strokeColor=#3399FF;strokeWidth=3;align=center;verticalAlign=middle;fontFamily=Helvetica;fontSize=11;fontColor=default;labelBackgroundColor=default;endArrow=none;endFill=0;" edge="1" parent="9GZUrrSOMpWSvkTZttJG-399" source="qfHB0enEs0YQk-gPigcF-2" target="suRE_rHokEg1OIpaxFs9-165">
          <mxGeometry relative="1" as="geometry">
            <Array as="points">
              <mxPoint x="1078" y="265" />
            </Array>
          </mxGeometry>
        </mxCell>
        <mxCell id="suRE_rHokEg1OIpaxFs9-175" value="" style="edgeStyle=orthogonalEdgeStyle;shape=connector;curved=0;rounded=1;orthogonalLoop=1;jettySize=auto;html=1;exitX=0.5;exitY=1;exitDx=0;exitDy=0;exitPerimeter=0;entryX=0;entryY=0.5;entryDx=0;entryDy=0;strokeColor=#3399FF;strokeWidth=3;align=center;verticalAlign=middle;fontFamily=Helvetica;fontSize=11;fontColor=default;labelBackgroundColor=default;endArrow=none;endFill=0;" edge="1" parent="9GZUrrSOMpWSvkTZttJG-399" source="suRE_rHokEg1OIpaxFs9-162" target="qfHB0enEs0YQk-gPigcF-2">
          <mxGeometry relative="1" as="geometry">
            <mxPoint x="804" y="184" as="sourcePoint" />
            <mxPoint x="1078" y="182" as="targetPoint" />
            <Array as="points" />
          </mxGeometry>
        </mxCell>
        <mxCell id="qfHB0enEs0YQk-gPigcF-2" value="Gi0/3&lt;div&gt;192.168.250.252/24&lt;/div&gt;" style="text;html=1;align=left;verticalAlign=middle;whiteSpace=wrap;rounded=0;fontFamily=Helvetica;fontSize=15;fontColor=#999999;labelBackgroundColor=default;" parent="9GZUrrSOMpWSvkTZttJG-399" vertex="1">
          <mxGeometry x="826" y="241" width="144" height="47" as="geometry" />
        </mxCell>
        <mxCell id="suRE_rHokEg1OIpaxFs9-176" value="" style="shape=mxgraph.cisco.wireless.wlan_controller;sketch=0;html=1;pointerEvents=1;dashed=0;fillColor=#036897;strokeColor=#ffffff;strokeWidth=2;verticalLabelPosition=bottom;verticalAlign=top;align=center;outlineConnect=0;fontFamily=Helvetica;fontSize=11;fontColor=default;labelBackgroundColor=default;" vertex="1" parent="9GZUrrSOMpWSvkTZttJG-399">
          <mxGeometry x="1040.5" y="-74" width="75" height="48" as="geometry" />
        </mxCell>
        <mxCell id="suRE_rHokEg1OIpaxFs9-177" style="edgeStyle=orthogonalEdgeStyle;shape=connector;curved=0;rounded=1;orthogonalLoop=1;jettySize=auto;html=1;exitX=0.5;exitY=0;exitDx=0;exitDy=0;exitPerimeter=0;entryX=0.5;entryY=1;entryDx=0;entryDy=0;entryPerimeter=0;strokeColor=#3399FF;strokeWidth=3;align=center;verticalAlign=middle;fontFamily=Helvetica;fontSize=11;fontColor=default;labelBackgroundColor=default;endArrow=none;endFill=0;" edge="1" parent="9GZUrrSOMpWSvkTZttJG-399" source="9GZUrrSOMpWSvkTZttJG-505" target="suRE_rHokEg1OIpaxFs9-176">
          <mxGeometry relative="1" as="geometry" />
        </mxCell>
        <mxCell id="suRE_rHokEg1OIpaxFs9-178" value="" style="edgeStyle=orthogonalEdgeStyle;shape=connector;curved=0;rounded=1;orthogonalLoop=1;jettySize=auto;html=1;exitX=0.5;exitY=0;exitDx=0;exitDy=0;exitPerimeter=0;entryX=0.5;entryY=1;entryDx=0;entryDy=0;entryPerimeter=0;strokeColor=#3399FF;strokeWidth=3;align=center;verticalAlign=middle;fontFamily=Helvetica;fontSize=11;fontColor=default;labelBackgroundColor=default;endArrow=none;endFill=0;" edge="1" parent="9GZUrrSOMpWSvkTZttJG-399" source="suRE_rHokEg1OIpaxFs9-165" target="9GZUrrSOMpWSvkTZttJG-505">
          <mxGeometry relative="1" as="geometry">
            <mxPoint x="1078" y="119" as="sourcePoint" />
            <mxPoint x="1078" y="-26" as="targetPoint" />
          </mxGeometry>
        </mxCell>
        <mxCell id="9GZUrrSOMpWSvkTZttJG-505" value="&lt;div style=&quot;&quot;&gt;Gi0/2&lt;/div&gt;&lt;div&gt;192.168.250.253/24&lt;/div&gt;" style="text;html=1;align=left;verticalAlign=middle;whiteSpace=wrap;rounded=0;fontFamily=Helvetica;fontSize=15;fontColor=#999999;labelBackgroundColor=default;" parent="9GZUrrSOMpWSvkTZttJG-399" vertex="1">
          <mxGeometry x="1010" y="-5" width="136" height="30" as="geometry" />
        </mxCell>
        <mxCell id="suRE_rHokEg1OIpaxFs9-194" value="" style="ellipse;shape=cloud;whiteSpace=wrap;html=1;fontFamily=Helvetica;fontSize=11;fontColor=default;labelBackgroundColor=default;" vertex="1" parent="9GZUrrSOMpWSvkTZttJG-399">
          <mxGeometry x="264" y="61.5" width="120" height="80" as="geometry" />
        </mxCell>
        <mxCell id="suRE_rHokEg1OIpaxFs9-195" style="edgeStyle=orthogonalEdgeStyle;shape=connector;curved=0;rounded=1;orthogonalLoop=1;jettySize=auto;html=1;exitX=0.875;exitY=0.5;exitDx=0;exitDy=0;exitPerimeter=0;entryX=0;entryY=0.5;entryDx=0;entryDy=0;entryPerimeter=0;strokeColor=#3399FF;strokeWidth=3;align=center;verticalAlign=middle;fontFamily=Helvetica;fontSize=11;fontColor=default;labelBackgroundColor=default;endArrow=none;endFill=0;" edge="1" parent="9GZUrrSOMpWSvkTZttJG-399" source="suRE_rHokEg1OIpaxFs9-194" target="suRE_rHokEg1OIpaxFs9-161">
          <mxGeometry relative="1" as="geometry" />
        </mxCell>
        <mxCell id="suRE_rHokEg1OIpaxFs9-216" value="" style="group" vertex="1" connectable="0" parent="9GZUrrSOMpWSvkTZttJG-399">
          <mxGeometry x="200" y="410" width="954" height="168" as="geometry" />
        </mxCell>
        <mxCell id="suRE_rHokEg1OIpaxFs9-179" value="" style="points=[[0.005,0.09,0],[0.08,0,0],[0.76,0.25,0],[1,0.92,0],[0.91,0.995,0],[0.57,0.995,0],[0.045,0.955,0],[0.005,0.43,0]];verticalLabelPosition=bottom;sketch=0;html=1;verticalAlign=top;aspect=fixed;align=center;pointerEvents=1;shape=mxgraph.cisco19.3g_4g_indicator;fillColor=#005073;strokeColor=none;fontFamily=Helvetica;fontSize=11;fontColor=default;labelBackgroundColor=default;" vertex="1" parent="suRE_rHokEg1OIpaxFs9-216">
          <mxGeometry x="772" y="109" width="50" height="50" as="geometry" />
        </mxCell>
        <mxCell id="suRE_rHokEg1OIpaxFs9-180" value="" style="sketch=0;points=[[0.015,0.015,0],[0.985,0.015,0],[0.985,0.985,0],[0.015,0.985,0],[0.25,0,0],[0.5,0,0],[0.75,0,0],[1,0.25,0],[1,0.5,0],[1,0.75,0],[0.75,1,0],[0.5,1,0],[0.25,1,0],[0,0.75,0],[0,0.5,0],[0,0.25,0]];verticalLabelPosition=bottom;html=1;verticalAlign=top;aspect=fixed;align=center;pointerEvents=1;shape=mxgraph.cisco19.rect;prIcon=l2_switch;fillColor=#FAFAFA;strokeColor=#005073;fontFamily=Helvetica;fontSize=11;fontColor=default;labelBackgroundColor=default;" vertex="1" parent="suRE_rHokEg1OIpaxFs9-216">
          <mxGeometry x="854" width="50" height="50" as="geometry" />
        </mxCell>
        <mxCell id="suRE_rHokEg1OIpaxFs9-182" value="" style="points=[[0.005,0.09,0],[0.08,0,0],[0.76,0.25,0],[1,0.92,0],[0.91,0.995,0],[0.57,0.995,0],[0.045,0.955,0],[0.005,0.43,0]];verticalLabelPosition=bottom;sketch=0;html=1;verticalAlign=top;aspect=fixed;align=center;pointerEvents=1;shape=mxgraph.cisco19.3g_4g_indicator;fillColor=#005073;strokeColor=none;fontFamily=Helvetica;fontSize=11;fontColor=default;labelBackgroundColor=default;" vertex="1" parent="suRE_rHokEg1OIpaxFs9-216">
          <mxGeometry x="904" y="112" width="50" height="50" as="geometry" />
        </mxCell>
        <mxCell id="suRE_rHokEg1OIpaxFs9-183" style="edgeStyle=orthogonalEdgeStyle;shape=connector;curved=0;rounded=1;orthogonalLoop=1;jettySize=auto;html=1;exitX=0.5;exitY=1;exitDx=0;exitDy=0;exitPerimeter=0;entryX=0.76;entryY=0.25;entryDx=0;entryDy=0;entryPerimeter=0;strokeColor=#3399FF;strokeWidth=3;align=center;verticalAlign=middle;fontFamily=Helvetica;fontSize=11;fontColor=default;labelBackgroundColor=default;endArrow=none;endFill=0;" edge="1" parent="suRE_rHokEg1OIpaxFs9-216" source="suRE_rHokEg1OIpaxFs9-180" target="suRE_rHokEg1OIpaxFs9-179">
          <mxGeometry relative="1" as="geometry" />
        </mxCell>
        <mxCell id="suRE_rHokEg1OIpaxFs9-184" style="edgeStyle=orthogonalEdgeStyle;shape=connector;curved=0;rounded=1;orthogonalLoop=1;jettySize=auto;html=1;exitX=0.5;exitY=1;exitDx=0;exitDy=0;exitPerimeter=0;entryX=0.76;entryY=0.25;entryDx=0;entryDy=0;entryPerimeter=0;strokeColor=#3399FF;strokeWidth=3;align=center;verticalAlign=middle;fontFamily=Helvetica;fontSize=11;fontColor=default;labelBackgroundColor=default;endArrow=none;endFill=0;" edge="1" parent="suRE_rHokEg1OIpaxFs9-216" source="suRE_rHokEg1OIpaxFs9-180" target="suRE_rHokEg1OIpaxFs9-182">
          <mxGeometry relative="1" as="geometry" />
        </mxCell>
        <mxCell id="suRE_rHokEg1OIpaxFs9-186" value="" style="points=[[0.005,0.09,0],[0.08,0,0],[0.76,0.25,0],[1,0.92,0],[0.91,0.995,0],[0.57,0.995,0],[0.045,0.955,0],[0.005,0.43,0]];verticalLabelPosition=bottom;sketch=0;html=1;verticalAlign=top;aspect=fixed;align=center;pointerEvents=1;shape=mxgraph.cisco19.3g_4g_indicator;fillColor=#005073;strokeColor=none;fontFamily=Helvetica;fontSize=11;fontColor=default;labelBackgroundColor=default;" vertex="1" parent="suRE_rHokEg1OIpaxFs9-216">
          <mxGeometry x="501" y="109" width="50" height="50" as="geometry" />
        </mxCell>
        <mxCell id="suRE_rHokEg1OIpaxFs9-187" value="" style="points=[[0.005,0.09,0],[0.08,0,0],[0.76,0.25,0],[1,0.92,0],[0.91,0.995,0],[0.57,0.995,0],[0.045,0.955,0],[0.005,0.43,0]];verticalLabelPosition=bottom;sketch=0;html=1;verticalAlign=top;aspect=fixed;align=center;pointerEvents=1;shape=mxgraph.cisco19.3g_4g_indicator;fillColor=#005073;strokeColor=none;fontFamily=Helvetica;fontSize=11;fontColor=default;labelBackgroundColor=default;" vertex="1" parent="suRE_rHokEg1OIpaxFs9-216">
          <mxGeometry x="633" y="112" width="50" height="50" as="geometry" />
        </mxCell>
        <mxCell id="suRE_rHokEg1OIpaxFs9-188" style="edgeStyle=orthogonalEdgeStyle;shape=connector;curved=0;rounded=1;orthogonalLoop=1;jettySize=auto;html=1;exitX=0.5;exitY=1;exitDx=0;exitDy=0;exitPerimeter=0;entryX=0.76;entryY=0.25;entryDx=0;entryDy=0;entryPerimeter=0;strokeColor=#3399FF;strokeWidth=3;align=center;verticalAlign=middle;fontFamily=Helvetica;fontSize=11;fontColor=default;labelBackgroundColor=default;endArrow=none;endFill=0;" edge="1" source="suRE_rHokEg1OIpaxFs9-190" target="suRE_rHokEg1OIpaxFs9-186" parent="suRE_rHokEg1OIpaxFs9-216">
          <mxGeometry relative="1" as="geometry" />
        </mxCell>
        <mxCell id="suRE_rHokEg1OIpaxFs9-189" style="edgeStyle=orthogonalEdgeStyle;shape=connector;curved=0;rounded=1;orthogonalLoop=1;jettySize=auto;html=1;exitX=0.5;exitY=1;exitDx=0;exitDy=0;exitPerimeter=0;entryX=0.76;entryY=0.25;entryDx=0;entryDy=0;entryPerimeter=0;strokeColor=#3399FF;strokeWidth=3;align=center;verticalAlign=middle;fontFamily=Helvetica;fontSize=11;fontColor=default;labelBackgroundColor=default;endArrow=none;endFill=0;" edge="1" source="suRE_rHokEg1OIpaxFs9-190" target="suRE_rHokEg1OIpaxFs9-187" parent="suRE_rHokEg1OIpaxFs9-216">
          <mxGeometry relative="1" as="geometry" />
        </mxCell>
        <mxCell id="suRE_rHokEg1OIpaxFs9-190" value="" style="sketch=0;points=[[0.015,0.015,0],[0.985,0.015,0],[0.985,0.985,0],[0.015,0.985,0],[0.25,0,0],[0.5,0,0],[0.75,0,0],[1,0.25,0],[1,0.5,0],[1,0.75,0],[0.75,1,0],[0.5,1,0],[0.25,1,0],[0,0.75,0],[0,0.5,0],[0,0.25,0]];verticalLabelPosition=bottom;html=1;verticalAlign=top;aspect=fixed;align=center;pointerEvents=1;shape=mxgraph.cisco19.rect;prIcon=l2_switch;fillColor=#FAFAFA;strokeColor=#005073;fontFamily=Helvetica;fontSize=11;fontColor=default;labelBackgroundColor=default;" vertex="1" parent="suRE_rHokEg1OIpaxFs9-216">
          <mxGeometry x="583" width="50" height="50" as="geometry" />
        </mxCell>
        <mxCell id="suRE_rHokEg1OIpaxFs9-206" value="" style="group" vertex="1" connectable="0" parent="suRE_rHokEg1OIpaxFs9-216">
          <mxGeometry x="243" width="185" height="168" as="geometry" />
        </mxCell>
        <mxCell id="suRE_rHokEg1OIpaxFs9-196" value="" style="sketch=0;points=[[0.015,0.015,0],[0.985,0.015,0],[0.985,0.985,0],[0.015,0.985,0],[0.25,0,0],[0.5,0,0],[0.75,0,0],[1,0.25,0],[1,0.5,0],[1,0.75,0],[0.75,1,0],[0.5,1,0],[0.25,1,0],[0,0.75,0],[0,0.5,0],[0,0.25,0]];verticalLabelPosition=bottom;html=1;verticalAlign=top;aspect=fixed;align=center;pointerEvents=1;shape=mxgraph.cisco19.rect;prIcon=l2_switch;fillColor=#FAFAFA;strokeColor=#005073;fontFamily=Helvetica;fontSize=11;fontColor=default;labelBackgroundColor=default;" vertex="1" parent="suRE_rHokEg1OIpaxFs9-206">
          <mxGeometry x="69" width="50" height="50" as="geometry" />
        </mxCell>
        <mxCell id="suRE_rHokEg1OIpaxFs9-198" value="" style="shape=mxgraph.cisco.computers_and_peripherals.pc;sketch=0;html=1;pointerEvents=1;dashed=0;fillColor=#036897;strokeColor=#ffffff;strokeWidth=2;verticalLabelPosition=bottom;verticalAlign=top;align=center;outlineConnect=0;fontFamily=Helvetica;fontSize=11;fontColor=default;labelBackgroundColor=default;" vertex="1" parent="suRE_rHokEg1OIpaxFs9-206">
          <mxGeometry x="122" y="109" width="63" height="59" as="geometry" />
        </mxCell>
        <mxCell id="suRE_rHokEg1OIpaxFs9-199" value="" style="shape=mxgraph.cisco.computers_and_peripherals.laptop;sketch=0;html=1;pointerEvents=1;dashed=0;fillColor=#036897;strokeColor=#ffffff;strokeWidth=2;verticalLabelPosition=bottom;verticalAlign=top;align=center;outlineConnect=0;fontFamily=Helvetica;fontSize=11;fontColor=default;labelBackgroundColor=default;" vertex="1" parent="suRE_rHokEg1OIpaxFs9-206">
          <mxGeometry y="112" width="67" height="52" as="geometry" />
        </mxCell>
        <mxCell id="suRE_rHokEg1OIpaxFs9-203" style="edgeStyle=orthogonalEdgeStyle;shape=connector;curved=0;rounded=1;orthogonalLoop=1;jettySize=auto;html=1;exitX=0.5;exitY=1;exitDx=0;exitDy=0;exitPerimeter=0;entryX=0.5;entryY=0;entryDx=0;entryDy=0;entryPerimeter=0;strokeColor=#3399FF;strokeWidth=3;align=center;verticalAlign=middle;fontFamily=Helvetica;fontSize=11;fontColor=default;labelBackgroundColor=default;endArrow=none;endFill=0;" edge="1" parent="suRE_rHokEg1OIpaxFs9-206" source="suRE_rHokEg1OIpaxFs9-196" target="suRE_rHokEg1OIpaxFs9-198">
          <mxGeometry relative="1" as="geometry" />
        </mxCell>
        <mxCell id="suRE_rHokEg1OIpaxFs9-205" style="edgeStyle=orthogonalEdgeStyle;shape=connector;curved=0;rounded=1;orthogonalLoop=1;jettySize=auto;html=1;exitX=0.5;exitY=1;exitDx=0;exitDy=0;exitPerimeter=0;entryX=0.5;entryY=0;entryDx=0;entryDy=0;entryPerimeter=0;strokeColor=#3399FF;strokeWidth=3;align=center;verticalAlign=middle;fontFamily=Helvetica;fontSize=11;fontColor=default;labelBackgroundColor=default;endArrow=none;endFill=0;" edge="1" parent="suRE_rHokEg1OIpaxFs9-206" source="suRE_rHokEg1OIpaxFs9-196" target="suRE_rHokEg1OIpaxFs9-199">
          <mxGeometry relative="1" as="geometry" />
        </mxCell>
        <mxCell id="suRE_rHokEg1OIpaxFs9-207" value="" style="group" vertex="1" connectable="0" parent="suRE_rHokEg1OIpaxFs9-216">
          <mxGeometry width="185" height="168" as="geometry" />
        </mxCell>
        <mxCell id="suRE_rHokEg1OIpaxFs9-208" value="" style="sketch=0;points=[[0.015,0.015,0],[0.985,0.015,0],[0.985,0.985,0],[0.015,0.985,0],[0.25,0,0],[0.5,0,0],[0.75,0,0],[1,0.25,0],[1,0.5,0],[1,0.75,0],[0.75,1,0],[0.5,1,0],[0.25,1,0],[0,0.75,0],[0,0.5,0],[0,0.25,0]];verticalLabelPosition=bottom;html=1;verticalAlign=top;aspect=fixed;align=center;pointerEvents=1;shape=mxgraph.cisco19.rect;prIcon=l2_switch;fillColor=#FAFAFA;strokeColor=#005073;fontFamily=Helvetica;fontSize=11;fontColor=default;labelBackgroundColor=default;" vertex="1" parent="suRE_rHokEg1OIpaxFs9-207">
          <mxGeometry x="69" width="50" height="50" as="geometry" />
        </mxCell>
        <mxCell id="suRE_rHokEg1OIpaxFs9-209" value="" style="shape=mxgraph.cisco.computers_and_peripherals.pc;sketch=0;html=1;pointerEvents=1;dashed=0;fillColor=#036897;strokeColor=#ffffff;strokeWidth=2;verticalLabelPosition=bottom;verticalAlign=top;align=center;outlineConnect=0;fontFamily=Helvetica;fontSize=11;fontColor=default;labelBackgroundColor=default;" vertex="1" parent="suRE_rHokEg1OIpaxFs9-207">
          <mxGeometry x="122" y="109" width="63" height="59" as="geometry" />
        </mxCell>
        <mxCell id="suRE_rHokEg1OIpaxFs9-210" value="" style="shape=mxgraph.cisco.computers_and_peripherals.laptop;sketch=0;html=1;pointerEvents=1;dashed=0;fillColor=#036897;strokeColor=#ffffff;strokeWidth=2;verticalLabelPosition=bottom;verticalAlign=top;align=center;outlineConnect=0;fontFamily=Helvetica;fontSize=11;fontColor=default;labelBackgroundColor=default;" vertex="1" parent="suRE_rHokEg1OIpaxFs9-207">
          <mxGeometry y="112" width="67" height="52" as="geometry" />
        </mxCell>
        <mxCell id="suRE_rHokEg1OIpaxFs9-211" style="edgeStyle=orthogonalEdgeStyle;shape=connector;curved=0;rounded=1;orthogonalLoop=1;jettySize=auto;html=1;exitX=0.5;exitY=1;exitDx=0;exitDy=0;exitPerimeter=0;entryX=0.5;entryY=0;entryDx=0;entryDy=0;entryPerimeter=0;strokeColor=#3399FF;strokeWidth=3;align=center;verticalAlign=middle;fontFamily=Helvetica;fontSize=11;fontColor=default;labelBackgroundColor=default;endArrow=none;endFill=0;" edge="1" parent="suRE_rHokEg1OIpaxFs9-207" source="suRE_rHokEg1OIpaxFs9-208" target="suRE_rHokEg1OIpaxFs9-209">
          <mxGeometry relative="1" as="geometry" />
        </mxCell>
        <mxCell id="suRE_rHokEg1OIpaxFs9-212" style="edgeStyle=orthogonalEdgeStyle;shape=connector;curved=0;rounded=1;orthogonalLoop=1;jettySize=auto;html=1;exitX=0.5;exitY=1;exitDx=0;exitDy=0;exitPerimeter=0;entryX=0.5;entryY=0;entryDx=0;entryDy=0;entryPerimeter=0;strokeColor=#3399FF;strokeWidth=3;align=center;verticalAlign=middle;fontFamily=Helvetica;fontSize=11;fontColor=default;labelBackgroundColor=default;endArrow=none;endFill=0;" edge="1" parent="suRE_rHokEg1OIpaxFs9-207" source="suRE_rHokEg1OIpaxFs9-208" target="suRE_rHokEg1OIpaxFs9-210">
          <mxGeometry relative="1" as="geometry" />
        </mxCell>
        <mxCell id="suRE_rHokEg1OIpaxFs9-220" value="" style="group" vertex="1" connectable="0" parent="9GZUrrSOMpWSvkTZttJG-399">
          <mxGeometry x="200" y="730" width="954" height="168" as="geometry" />
        </mxCell>
        <mxCell id="suRE_rHokEg1OIpaxFs9-221" value="" style="points=[[0.005,0.09,0],[0.08,0,0],[0.76,0.25,0],[1,0.92,0],[0.91,0.995,0],[0.57,0.995,0],[0.045,0.955,0],[0.005,0.43,0]];verticalLabelPosition=bottom;sketch=0;html=1;verticalAlign=top;aspect=fixed;align=center;pointerEvents=1;shape=mxgraph.cisco19.3g_4g_indicator;fillColor=#005073;strokeColor=none;fontFamily=Helvetica;fontSize=11;fontColor=default;labelBackgroundColor=default;" vertex="1" parent="suRE_rHokEg1OIpaxFs9-220">
          <mxGeometry x="772" y="109" width="50" height="50" as="geometry" />
        </mxCell>
        <mxCell id="suRE_rHokEg1OIpaxFs9-222" value="" style="sketch=0;points=[[0.015,0.015,0],[0.985,0.015,0],[0.985,0.985,0],[0.015,0.985,0],[0.25,0,0],[0.5,0,0],[0.75,0,0],[1,0.25,0],[1,0.5,0],[1,0.75,0],[0.75,1,0],[0.5,1,0],[0.25,1,0],[0,0.75,0],[0,0.5,0],[0,0.25,0]];verticalLabelPosition=bottom;html=1;verticalAlign=top;aspect=fixed;align=center;pointerEvents=1;shape=mxgraph.cisco19.rect;prIcon=l2_switch;fillColor=#FAFAFA;strokeColor=#005073;fontFamily=Helvetica;fontSize=11;fontColor=default;labelBackgroundColor=default;" vertex="1" parent="suRE_rHokEg1OIpaxFs9-220">
          <mxGeometry x="854" width="50" height="50" as="geometry" />
        </mxCell>
        <mxCell id="suRE_rHokEg1OIpaxFs9-223" value="" style="points=[[0.005,0.09,0],[0.08,0,0],[0.76,0.25,0],[1,0.92,0],[0.91,0.995,0],[0.57,0.995,0],[0.045,0.955,0],[0.005,0.43,0]];verticalLabelPosition=bottom;sketch=0;html=1;verticalAlign=top;aspect=fixed;align=center;pointerEvents=1;shape=mxgraph.cisco19.3g_4g_indicator;fillColor=#005073;strokeColor=none;fontFamily=Helvetica;fontSize=11;fontColor=default;labelBackgroundColor=default;" vertex="1" parent="suRE_rHokEg1OIpaxFs9-220">
          <mxGeometry x="904" y="112" width="50" height="50" as="geometry" />
        </mxCell>
        <mxCell id="suRE_rHokEg1OIpaxFs9-224" style="edgeStyle=orthogonalEdgeStyle;shape=connector;curved=0;rounded=1;orthogonalLoop=1;jettySize=auto;html=1;exitX=0.5;exitY=1;exitDx=0;exitDy=0;exitPerimeter=0;entryX=0.76;entryY=0.25;entryDx=0;entryDy=0;entryPerimeter=0;strokeColor=#3399FF;strokeWidth=3;align=center;verticalAlign=middle;fontFamily=Helvetica;fontSize=11;fontColor=default;labelBackgroundColor=default;endArrow=none;endFill=0;" edge="1" parent="suRE_rHokEg1OIpaxFs9-220" source="suRE_rHokEg1OIpaxFs9-222" target="suRE_rHokEg1OIpaxFs9-221">
          <mxGeometry relative="1" as="geometry" />
        </mxCell>
        <mxCell id="suRE_rHokEg1OIpaxFs9-225" style="edgeStyle=orthogonalEdgeStyle;shape=connector;curved=0;rounded=1;orthogonalLoop=1;jettySize=auto;html=1;exitX=0.5;exitY=1;exitDx=0;exitDy=0;exitPerimeter=0;entryX=0.76;entryY=0.25;entryDx=0;entryDy=0;entryPerimeter=0;strokeColor=#3399FF;strokeWidth=3;align=center;verticalAlign=middle;fontFamily=Helvetica;fontSize=11;fontColor=default;labelBackgroundColor=default;endArrow=none;endFill=0;" edge="1" parent="suRE_rHokEg1OIpaxFs9-220" source="suRE_rHokEg1OIpaxFs9-222" target="suRE_rHokEg1OIpaxFs9-223">
          <mxGeometry relative="1" as="geometry" />
        </mxCell>
        <mxCell id="suRE_rHokEg1OIpaxFs9-226" value="" style="points=[[0.005,0.09,0],[0.08,0,0],[0.76,0.25,0],[1,0.92,0],[0.91,0.995,0],[0.57,0.995,0],[0.045,0.955,0],[0.005,0.43,0]];verticalLabelPosition=bottom;sketch=0;html=1;verticalAlign=top;aspect=fixed;align=center;pointerEvents=1;shape=mxgraph.cisco19.3g_4g_indicator;fillColor=#005073;strokeColor=none;fontFamily=Helvetica;fontSize=11;fontColor=default;labelBackgroundColor=default;" vertex="1" parent="suRE_rHokEg1OIpaxFs9-220">
          <mxGeometry x="501" y="109" width="50" height="50" as="geometry" />
        </mxCell>
        <mxCell id="suRE_rHokEg1OIpaxFs9-227" value="" style="points=[[0.005,0.09,0],[0.08,0,0],[0.76,0.25,0],[1,0.92,0],[0.91,0.995,0],[0.57,0.995,0],[0.045,0.955,0],[0.005,0.43,0]];verticalLabelPosition=bottom;sketch=0;html=1;verticalAlign=top;aspect=fixed;align=center;pointerEvents=1;shape=mxgraph.cisco19.3g_4g_indicator;fillColor=#005073;strokeColor=none;fontFamily=Helvetica;fontSize=11;fontColor=default;labelBackgroundColor=default;" vertex="1" parent="suRE_rHokEg1OIpaxFs9-220">
          <mxGeometry x="633" y="112" width="50" height="50" as="geometry" />
        </mxCell>
        <mxCell id="suRE_rHokEg1OIpaxFs9-228" style="edgeStyle=orthogonalEdgeStyle;shape=connector;curved=0;rounded=1;orthogonalLoop=1;jettySize=auto;html=1;exitX=0.5;exitY=1;exitDx=0;exitDy=0;exitPerimeter=0;entryX=0.76;entryY=0.25;entryDx=0;entryDy=0;entryPerimeter=0;strokeColor=#3399FF;strokeWidth=3;align=center;verticalAlign=middle;fontFamily=Helvetica;fontSize=11;fontColor=default;labelBackgroundColor=default;endArrow=none;endFill=0;" edge="1" parent="suRE_rHokEg1OIpaxFs9-220" source="suRE_rHokEg1OIpaxFs9-230" target="suRE_rHokEg1OIpaxFs9-226">
          <mxGeometry relative="1" as="geometry" />
        </mxCell>
        <mxCell id="suRE_rHokEg1OIpaxFs9-229" style="edgeStyle=orthogonalEdgeStyle;shape=connector;curved=0;rounded=1;orthogonalLoop=1;jettySize=auto;html=1;exitX=0.5;exitY=1;exitDx=0;exitDy=0;exitPerimeter=0;entryX=0.76;entryY=0.25;entryDx=0;entryDy=0;entryPerimeter=0;strokeColor=#3399FF;strokeWidth=3;align=center;verticalAlign=middle;fontFamily=Helvetica;fontSize=11;fontColor=default;labelBackgroundColor=default;endArrow=none;endFill=0;" edge="1" parent="suRE_rHokEg1OIpaxFs9-220" source="suRE_rHokEg1OIpaxFs9-230" target="suRE_rHokEg1OIpaxFs9-227">
          <mxGeometry relative="1" as="geometry" />
        </mxCell>
        <mxCell id="suRE_rHokEg1OIpaxFs9-230" value="" style="sketch=0;points=[[0.015,0.015,0],[0.985,0.015,0],[0.985,0.985,0],[0.015,0.985,0],[0.25,0,0],[0.5,0,0],[0.75,0,0],[1,0.25,0],[1,0.5,0],[1,0.75,0],[0.75,1,0],[0.5,1,0],[0.25,1,0],[0,0.75,0],[0,0.5,0],[0,0.25,0]];verticalLabelPosition=bottom;html=1;verticalAlign=top;aspect=fixed;align=center;pointerEvents=1;shape=mxgraph.cisco19.rect;prIcon=l2_switch;fillColor=#FAFAFA;strokeColor=#005073;fontFamily=Helvetica;fontSize=11;fontColor=default;labelBackgroundColor=default;" vertex="1" parent="suRE_rHokEg1OIpaxFs9-220">
          <mxGeometry x="583" width="50" height="50" as="geometry" />
        </mxCell>
        <mxCell id="suRE_rHokEg1OIpaxFs9-231" value="" style="group" vertex="1" connectable="0" parent="suRE_rHokEg1OIpaxFs9-220">
          <mxGeometry x="243" width="185" height="168" as="geometry" />
        </mxCell>
        <mxCell id="suRE_rHokEg1OIpaxFs9-232" value="" style="sketch=0;points=[[0.015,0.015,0],[0.985,0.015,0],[0.985,0.985,0],[0.015,0.985,0],[0.25,0,0],[0.5,0,0],[0.75,0,0],[1,0.25,0],[1,0.5,0],[1,0.75,0],[0.75,1,0],[0.5,1,0],[0.25,1,0],[0,0.75,0],[0,0.5,0],[0,0.25,0]];verticalLabelPosition=bottom;html=1;verticalAlign=top;aspect=fixed;align=center;pointerEvents=1;shape=mxgraph.cisco19.rect;prIcon=l2_switch;fillColor=#FAFAFA;strokeColor=#005073;fontFamily=Helvetica;fontSize=11;fontColor=default;labelBackgroundColor=default;" vertex="1" parent="suRE_rHokEg1OIpaxFs9-231">
          <mxGeometry x="69" width="50" height="50" as="geometry" />
        </mxCell>
        <mxCell id="suRE_rHokEg1OIpaxFs9-233" value="" style="shape=mxgraph.cisco.computers_and_peripherals.pc;sketch=0;html=1;pointerEvents=1;dashed=0;fillColor=#036897;strokeColor=#ffffff;strokeWidth=2;verticalLabelPosition=bottom;verticalAlign=top;align=center;outlineConnect=0;fontFamily=Helvetica;fontSize=11;fontColor=default;labelBackgroundColor=default;" vertex="1" parent="suRE_rHokEg1OIpaxFs9-231">
          <mxGeometry x="122" y="109" width="63" height="59" as="geometry" />
        </mxCell>
        <mxCell id="suRE_rHokEg1OIpaxFs9-234" value="" style="shape=mxgraph.cisco.computers_and_peripherals.laptop;sketch=0;html=1;pointerEvents=1;dashed=0;fillColor=#036897;strokeColor=#ffffff;strokeWidth=2;verticalLabelPosition=bottom;verticalAlign=top;align=center;outlineConnect=0;fontFamily=Helvetica;fontSize=11;fontColor=default;labelBackgroundColor=default;" vertex="1" parent="suRE_rHokEg1OIpaxFs9-231">
          <mxGeometry y="112" width="67" height="52" as="geometry" />
        </mxCell>
        <mxCell id="suRE_rHokEg1OIpaxFs9-235" style="edgeStyle=orthogonalEdgeStyle;shape=connector;curved=0;rounded=1;orthogonalLoop=1;jettySize=auto;html=1;exitX=0.5;exitY=1;exitDx=0;exitDy=0;exitPerimeter=0;entryX=0.5;entryY=0;entryDx=0;entryDy=0;entryPerimeter=0;strokeColor=#3399FF;strokeWidth=3;align=center;verticalAlign=middle;fontFamily=Helvetica;fontSize=11;fontColor=default;labelBackgroundColor=default;endArrow=none;endFill=0;" edge="1" parent="suRE_rHokEg1OIpaxFs9-231" source="suRE_rHokEg1OIpaxFs9-232" target="suRE_rHokEg1OIpaxFs9-233">
          <mxGeometry relative="1" as="geometry" />
        </mxCell>
        <mxCell id="suRE_rHokEg1OIpaxFs9-236" style="edgeStyle=orthogonalEdgeStyle;shape=connector;curved=0;rounded=1;orthogonalLoop=1;jettySize=auto;html=1;exitX=0.5;exitY=1;exitDx=0;exitDy=0;exitPerimeter=0;entryX=0.5;entryY=0;entryDx=0;entryDy=0;entryPerimeter=0;strokeColor=#3399FF;strokeWidth=3;align=center;verticalAlign=middle;fontFamily=Helvetica;fontSize=11;fontColor=default;labelBackgroundColor=default;endArrow=none;endFill=0;" edge="1" parent="suRE_rHokEg1OIpaxFs9-231" source="suRE_rHokEg1OIpaxFs9-232" target="suRE_rHokEg1OIpaxFs9-234">
          <mxGeometry relative="1" as="geometry" />
        </mxCell>
        <mxCell id="suRE_rHokEg1OIpaxFs9-237" value="" style="group" vertex="1" connectable="0" parent="suRE_rHokEg1OIpaxFs9-220">
          <mxGeometry width="185" height="168" as="geometry" />
        </mxCell>
        <mxCell id="suRE_rHokEg1OIpaxFs9-238" value="" style="sketch=0;points=[[0.015,0.015,0],[0.985,0.015,0],[0.985,0.985,0],[0.015,0.985,0],[0.25,0,0],[0.5,0,0],[0.75,0,0],[1,0.25,0],[1,0.5,0],[1,0.75,0],[0.75,1,0],[0.5,1,0],[0.25,1,0],[0,0.75,0],[0,0.5,0],[0,0.25,0]];verticalLabelPosition=bottom;html=1;verticalAlign=top;aspect=fixed;align=center;pointerEvents=1;shape=mxgraph.cisco19.rect;prIcon=l2_switch;fillColor=#FAFAFA;strokeColor=#005073;fontFamily=Helvetica;fontSize=11;fontColor=default;labelBackgroundColor=default;" vertex="1" parent="suRE_rHokEg1OIpaxFs9-237">
          <mxGeometry x="69" width="50" height="50" as="geometry" />
        </mxCell>
        <mxCell id="suRE_rHokEg1OIpaxFs9-239" value="" style="shape=mxgraph.cisco.computers_and_peripherals.pc;sketch=0;html=1;pointerEvents=1;dashed=0;fillColor=#036897;strokeColor=#ffffff;strokeWidth=2;verticalLabelPosition=bottom;verticalAlign=top;align=center;outlineConnect=0;fontFamily=Helvetica;fontSize=11;fontColor=default;labelBackgroundColor=default;" vertex="1" parent="suRE_rHokEg1OIpaxFs9-237">
          <mxGeometry x="122" y="109" width="63" height="59" as="geometry" />
        </mxCell>
        <mxCell id="suRE_rHokEg1OIpaxFs9-240" value="" style="shape=mxgraph.cisco.computers_and_peripherals.laptop;sketch=0;html=1;pointerEvents=1;dashed=0;fillColor=#036897;strokeColor=#ffffff;strokeWidth=2;verticalLabelPosition=bottom;verticalAlign=top;align=center;outlineConnect=0;fontFamily=Helvetica;fontSize=11;fontColor=default;labelBackgroundColor=default;" vertex="1" parent="suRE_rHokEg1OIpaxFs9-237">
          <mxGeometry y="112" width="67" height="52" as="geometry" />
        </mxCell>
        <mxCell id="suRE_rHokEg1OIpaxFs9-241" style="edgeStyle=orthogonalEdgeStyle;shape=connector;curved=0;rounded=1;orthogonalLoop=1;jettySize=auto;html=1;exitX=0.5;exitY=1;exitDx=0;exitDy=0;exitPerimeter=0;entryX=0.5;entryY=0;entryDx=0;entryDy=0;entryPerimeter=0;strokeColor=#3399FF;strokeWidth=3;align=center;verticalAlign=middle;fontFamily=Helvetica;fontSize=11;fontColor=default;labelBackgroundColor=default;endArrow=none;endFill=0;" edge="1" parent="suRE_rHokEg1OIpaxFs9-237" source="suRE_rHokEg1OIpaxFs9-238" target="suRE_rHokEg1OIpaxFs9-239">
          <mxGeometry relative="1" as="geometry" />
        </mxCell>
        <mxCell id="suRE_rHokEg1OIpaxFs9-242" style="edgeStyle=orthogonalEdgeStyle;shape=connector;curved=0;rounded=1;orthogonalLoop=1;jettySize=auto;html=1;exitX=0.5;exitY=1;exitDx=0;exitDy=0;exitPerimeter=0;entryX=0.5;entryY=0;entryDx=0;entryDy=0;entryPerimeter=0;strokeColor=#3399FF;strokeWidth=3;align=center;verticalAlign=middle;fontFamily=Helvetica;fontSize=11;fontColor=default;labelBackgroundColor=default;endArrow=none;endFill=0;" edge="1" parent="suRE_rHokEg1OIpaxFs9-237" source="suRE_rHokEg1OIpaxFs9-238" target="suRE_rHokEg1OIpaxFs9-240">
          <mxGeometry relative="1" as="geometry" />
        </mxCell>
        <mxCell id="suRE_rHokEg1OIpaxFs9-248" value="" style="group" vertex="1" connectable="0" parent="9GZUrrSOMpWSvkTZttJG-399">
          <mxGeometry x="200" y="1050" width="954" height="168" as="geometry" />
        </mxCell>
        <mxCell id="suRE_rHokEg1OIpaxFs9-249" value="" style="points=[[0.005,0.09,0],[0.08,0,0],[0.76,0.25,0],[1,0.92,0],[0.91,0.995,0],[0.57,0.995,0],[0.045,0.955,0],[0.005,0.43,0]];verticalLabelPosition=bottom;sketch=0;html=1;verticalAlign=top;aspect=fixed;align=center;pointerEvents=1;shape=mxgraph.cisco19.3g_4g_indicator;fillColor=#005073;strokeColor=none;fontFamily=Helvetica;fontSize=11;fontColor=default;labelBackgroundColor=default;" vertex="1" parent="suRE_rHokEg1OIpaxFs9-248">
          <mxGeometry x="772" y="109" width="50" height="50" as="geometry" />
        </mxCell>
        <mxCell id="suRE_rHokEg1OIpaxFs9-250" value="" style="sketch=0;points=[[0.015,0.015,0],[0.985,0.015,0],[0.985,0.985,0],[0.015,0.985,0],[0.25,0,0],[0.5,0,0],[0.75,0,0],[1,0.25,0],[1,0.5,0],[1,0.75,0],[0.75,1,0],[0.5,1,0],[0.25,1,0],[0,0.75,0],[0,0.5,0],[0,0.25,0]];verticalLabelPosition=bottom;html=1;verticalAlign=top;aspect=fixed;align=center;pointerEvents=1;shape=mxgraph.cisco19.rect;prIcon=l2_switch;fillColor=#FAFAFA;strokeColor=#005073;fontFamily=Helvetica;fontSize=11;fontColor=default;labelBackgroundColor=default;" vertex="1" parent="suRE_rHokEg1OIpaxFs9-248">
          <mxGeometry x="854" width="50" height="50" as="geometry" />
        </mxCell>
        <mxCell id="suRE_rHokEg1OIpaxFs9-251" value="" style="points=[[0.005,0.09,0],[0.08,0,0],[0.76,0.25,0],[1,0.92,0],[0.91,0.995,0],[0.57,0.995,0],[0.045,0.955,0],[0.005,0.43,0]];verticalLabelPosition=bottom;sketch=0;html=1;verticalAlign=top;aspect=fixed;align=center;pointerEvents=1;shape=mxgraph.cisco19.3g_4g_indicator;fillColor=#005073;strokeColor=none;fontFamily=Helvetica;fontSize=11;fontColor=default;labelBackgroundColor=default;" vertex="1" parent="suRE_rHokEg1OIpaxFs9-248">
          <mxGeometry x="904" y="112" width="50" height="50" as="geometry" />
        </mxCell>
        <mxCell id="suRE_rHokEg1OIpaxFs9-252" style="edgeStyle=orthogonalEdgeStyle;shape=connector;curved=0;rounded=1;orthogonalLoop=1;jettySize=auto;html=1;exitX=0.5;exitY=1;exitDx=0;exitDy=0;exitPerimeter=0;entryX=0.76;entryY=0.25;entryDx=0;entryDy=0;entryPerimeter=0;strokeColor=#3399FF;strokeWidth=3;align=center;verticalAlign=middle;fontFamily=Helvetica;fontSize=11;fontColor=default;labelBackgroundColor=default;endArrow=none;endFill=0;" edge="1" parent="suRE_rHokEg1OIpaxFs9-248" source="suRE_rHokEg1OIpaxFs9-250" target="suRE_rHokEg1OIpaxFs9-249">
          <mxGeometry relative="1" as="geometry" />
        </mxCell>
        <mxCell id="suRE_rHokEg1OIpaxFs9-253" style="edgeStyle=orthogonalEdgeStyle;shape=connector;curved=0;rounded=1;orthogonalLoop=1;jettySize=auto;html=1;exitX=0.5;exitY=1;exitDx=0;exitDy=0;exitPerimeter=0;entryX=0.76;entryY=0.25;entryDx=0;entryDy=0;entryPerimeter=0;strokeColor=#3399FF;strokeWidth=3;align=center;verticalAlign=middle;fontFamily=Helvetica;fontSize=11;fontColor=default;labelBackgroundColor=default;endArrow=none;endFill=0;" edge="1" parent="suRE_rHokEg1OIpaxFs9-248" source="suRE_rHokEg1OIpaxFs9-250" target="suRE_rHokEg1OIpaxFs9-251">
          <mxGeometry relative="1" as="geometry" />
        </mxCell>
        <mxCell id="suRE_rHokEg1OIpaxFs9-254" value="" style="points=[[0.005,0.09,0],[0.08,0,0],[0.76,0.25,0],[1,0.92,0],[0.91,0.995,0],[0.57,0.995,0],[0.045,0.955,0],[0.005,0.43,0]];verticalLabelPosition=bottom;sketch=0;html=1;verticalAlign=top;aspect=fixed;align=center;pointerEvents=1;shape=mxgraph.cisco19.3g_4g_indicator;fillColor=#005073;strokeColor=none;fontFamily=Helvetica;fontSize=11;fontColor=default;labelBackgroundColor=default;" vertex="1" parent="suRE_rHokEg1OIpaxFs9-248">
          <mxGeometry x="501" y="109" width="50" height="50" as="geometry" />
        </mxCell>
        <mxCell id="suRE_rHokEg1OIpaxFs9-255" value="" style="points=[[0.005,0.09,0],[0.08,0,0],[0.76,0.25,0],[1,0.92,0],[0.91,0.995,0],[0.57,0.995,0],[0.045,0.955,0],[0.005,0.43,0]];verticalLabelPosition=bottom;sketch=0;html=1;verticalAlign=top;aspect=fixed;align=center;pointerEvents=1;shape=mxgraph.cisco19.3g_4g_indicator;fillColor=#005073;strokeColor=none;fontFamily=Helvetica;fontSize=11;fontColor=default;labelBackgroundColor=default;" vertex="1" parent="suRE_rHokEg1OIpaxFs9-248">
          <mxGeometry x="633" y="112" width="50" height="50" as="geometry" />
        </mxCell>
        <mxCell id="suRE_rHokEg1OIpaxFs9-256" style="edgeStyle=orthogonalEdgeStyle;shape=connector;curved=0;rounded=1;orthogonalLoop=1;jettySize=auto;html=1;exitX=0.5;exitY=1;exitDx=0;exitDy=0;exitPerimeter=0;entryX=0.76;entryY=0.25;entryDx=0;entryDy=0;entryPerimeter=0;strokeColor=#3399FF;strokeWidth=3;align=center;verticalAlign=middle;fontFamily=Helvetica;fontSize=11;fontColor=default;labelBackgroundColor=default;endArrow=none;endFill=0;" edge="1" parent="suRE_rHokEg1OIpaxFs9-248" source="suRE_rHokEg1OIpaxFs9-258" target="suRE_rHokEg1OIpaxFs9-254">
          <mxGeometry relative="1" as="geometry" />
        </mxCell>
        <mxCell id="suRE_rHokEg1OIpaxFs9-257" style="edgeStyle=orthogonalEdgeStyle;shape=connector;curved=0;rounded=1;orthogonalLoop=1;jettySize=auto;html=1;exitX=0.5;exitY=1;exitDx=0;exitDy=0;exitPerimeter=0;entryX=0.76;entryY=0.25;entryDx=0;entryDy=0;entryPerimeter=0;strokeColor=#3399FF;strokeWidth=3;align=center;verticalAlign=middle;fontFamily=Helvetica;fontSize=11;fontColor=default;labelBackgroundColor=default;endArrow=none;endFill=0;" edge="1" parent="suRE_rHokEg1OIpaxFs9-248" source="suRE_rHokEg1OIpaxFs9-258" target="suRE_rHokEg1OIpaxFs9-255">
          <mxGeometry relative="1" as="geometry" />
        </mxCell>
        <mxCell id="suRE_rHokEg1OIpaxFs9-258" value="" style="sketch=0;points=[[0.015,0.015,0],[0.985,0.015,0],[0.985,0.985,0],[0.015,0.985,0],[0.25,0,0],[0.5,0,0],[0.75,0,0],[1,0.25,0],[1,0.5,0],[1,0.75,0],[0.75,1,0],[0.5,1,0],[0.25,1,0],[0,0.75,0],[0,0.5,0],[0,0.25,0]];verticalLabelPosition=bottom;html=1;verticalAlign=top;aspect=fixed;align=center;pointerEvents=1;shape=mxgraph.cisco19.rect;prIcon=l2_switch;fillColor=#FAFAFA;strokeColor=#005073;fontFamily=Helvetica;fontSize=11;fontColor=default;labelBackgroundColor=default;" vertex="1" parent="suRE_rHokEg1OIpaxFs9-248">
          <mxGeometry x="583" width="50" height="50" as="geometry" />
        </mxCell>
        <mxCell id="suRE_rHokEg1OIpaxFs9-259" value="" style="group" vertex="1" connectable="0" parent="suRE_rHokEg1OIpaxFs9-248">
          <mxGeometry x="243" width="185" height="168" as="geometry" />
        </mxCell>
        <mxCell id="suRE_rHokEg1OIpaxFs9-260" value="" style="sketch=0;points=[[0.015,0.015,0],[0.985,0.015,0],[0.985,0.985,0],[0.015,0.985,0],[0.25,0,0],[0.5,0,0],[0.75,0,0],[1,0.25,0],[1,0.5,0],[1,0.75,0],[0.75,1,0],[0.5,1,0],[0.25,1,0],[0,0.75,0],[0,0.5,0],[0,0.25,0]];verticalLabelPosition=bottom;html=1;verticalAlign=top;aspect=fixed;align=center;pointerEvents=1;shape=mxgraph.cisco19.rect;prIcon=l2_switch;fillColor=#FAFAFA;strokeColor=#005073;fontFamily=Helvetica;fontSize=11;fontColor=default;labelBackgroundColor=default;" vertex="1" parent="suRE_rHokEg1OIpaxFs9-259">
          <mxGeometry x="69" width="50" height="50" as="geometry" />
        </mxCell>
        <mxCell id="suRE_rHokEg1OIpaxFs9-261" value="" style="shape=mxgraph.cisco.computers_and_peripherals.pc;sketch=0;html=1;pointerEvents=1;dashed=0;fillColor=#036897;strokeColor=#ffffff;strokeWidth=2;verticalLabelPosition=bottom;verticalAlign=top;align=center;outlineConnect=0;fontFamily=Helvetica;fontSize=11;fontColor=default;labelBackgroundColor=default;" vertex="1" parent="suRE_rHokEg1OIpaxFs9-259">
          <mxGeometry x="122" y="109" width="63" height="59" as="geometry" />
        </mxCell>
        <mxCell id="suRE_rHokEg1OIpaxFs9-262" value="" style="shape=mxgraph.cisco.computers_and_peripherals.laptop;sketch=0;html=1;pointerEvents=1;dashed=0;fillColor=#036897;strokeColor=#ffffff;strokeWidth=2;verticalLabelPosition=bottom;verticalAlign=top;align=center;outlineConnect=0;fontFamily=Helvetica;fontSize=11;fontColor=default;labelBackgroundColor=default;" vertex="1" parent="suRE_rHokEg1OIpaxFs9-259">
          <mxGeometry y="112" width="67" height="52" as="geometry" />
        </mxCell>
        <mxCell id="suRE_rHokEg1OIpaxFs9-263" style="edgeStyle=orthogonalEdgeStyle;shape=connector;curved=0;rounded=1;orthogonalLoop=1;jettySize=auto;html=1;exitX=0.5;exitY=1;exitDx=0;exitDy=0;exitPerimeter=0;entryX=0.5;entryY=0;entryDx=0;entryDy=0;entryPerimeter=0;strokeColor=#3399FF;strokeWidth=3;align=center;verticalAlign=middle;fontFamily=Helvetica;fontSize=11;fontColor=default;labelBackgroundColor=default;endArrow=none;endFill=0;" edge="1" parent="suRE_rHokEg1OIpaxFs9-259" source="suRE_rHokEg1OIpaxFs9-260" target="suRE_rHokEg1OIpaxFs9-261">
          <mxGeometry relative="1" as="geometry" />
        </mxCell>
        <mxCell id="suRE_rHokEg1OIpaxFs9-264" style="edgeStyle=orthogonalEdgeStyle;shape=connector;curved=0;rounded=1;orthogonalLoop=1;jettySize=auto;html=1;exitX=0.5;exitY=1;exitDx=0;exitDy=0;exitPerimeter=0;entryX=0.5;entryY=0;entryDx=0;entryDy=0;entryPerimeter=0;strokeColor=#3399FF;strokeWidth=3;align=center;verticalAlign=middle;fontFamily=Helvetica;fontSize=11;fontColor=default;labelBackgroundColor=default;endArrow=none;endFill=0;" edge="1" parent="suRE_rHokEg1OIpaxFs9-259" source="suRE_rHokEg1OIpaxFs9-260" target="suRE_rHokEg1OIpaxFs9-262">
          <mxGeometry relative="1" as="geometry" />
        </mxCell>
        <mxCell id="suRE_rHokEg1OIpaxFs9-265" value="" style="group" vertex="1" connectable="0" parent="suRE_rHokEg1OIpaxFs9-248">
          <mxGeometry width="185" height="168" as="geometry" />
        </mxCell>
        <mxCell id="suRE_rHokEg1OIpaxFs9-266" value="" style="sketch=0;points=[[0.015,0.015,0],[0.985,0.015,0],[0.985,0.985,0],[0.015,0.985,0],[0.25,0,0],[0.5,0,0],[0.75,0,0],[1,0.25,0],[1,0.5,0],[1,0.75,0],[0.75,1,0],[0.5,1,0],[0.25,1,0],[0,0.75,0],[0,0.5,0],[0,0.25,0]];verticalLabelPosition=bottom;html=1;verticalAlign=top;aspect=fixed;align=center;pointerEvents=1;shape=mxgraph.cisco19.rect;prIcon=l2_switch;fillColor=#FAFAFA;strokeColor=#005073;fontFamily=Helvetica;fontSize=11;fontColor=default;labelBackgroundColor=default;" vertex="1" parent="suRE_rHokEg1OIpaxFs9-265">
          <mxGeometry x="69" width="50" height="50" as="geometry" />
        </mxCell>
        <mxCell id="suRE_rHokEg1OIpaxFs9-267" value="" style="shape=mxgraph.cisco.computers_and_peripherals.pc;sketch=0;html=1;pointerEvents=1;dashed=0;fillColor=#036897;strokeColor=#ffffff;strokeWidth=2;verticalLabelPosition=bottom;verticalAlign=top;align=center;outlineConnect=0;fontFamily=Helvetica;fontSize=11;fontColor=default;labelBackgroundColor=default;" vertex="1" parent="suRE_rHokEg1OIpaxFs9-265">
          <mxGeometry x="122" y="109" width="63" height="59" as="geometry" />
        </mxCell>
        <mxCell id="suRE_rHokEg1OIpaxFs9-268" value="" style="shape=mxgraph.cisco.computers_and_peripherals.laptop;sketch=0;html=1;pointerEvents=1;dashed=0;fillColor=#036897;strokeColor=#ffffff;strokeWidth=2;verticalLabelPosition=bottom;verticalAlign=top;align=center;outlineConnect=0;fontFamily=Helvetica;fontSize=11;fontColor=default;labelBackgroundColor=default;" vertex="1" parent="suRE_rHokEg1OIpaxFs9-265">
          <mxGeometry y="112" width="67" height="52" as="geometry" />
        </mxCell>
        <mxCell id="suRE_rHokEg1OIpaxFs9-269" style="edgeStyle=orthogonalEdgeStyle;shape=connector;curved=0;rounded=1;orthogonalLoop=1;jettySize=auto;html=1;exitX=0.5;exitY=1;exitDx=0;exitDy=0;exitPerimeter=0;entryX=0.5;entryY=0;entryDx=0;entryDy=0;entryPerimeter=0;strokeColor=#3399FF;strokeWidth=3;align=center;verticalAlign=middle;fontFamily=Helvetica;fontSize=11;fontColor=default;labelBackgroundColor=default;endArrow=none;endFill=0;" edge="1" parent="suRE_rHokEg1OIpaxFs9-265" source="suRE_rHokEg1OIpaxFs9-266" target="suRE_rHokEg1OIpaxFs9-267">
          <mxGeometry relative="1" as="geometry" />
        </mxCell>
        <mxCell id="suRE_rHokEg1OIpaxFs9-270" style="edgeStyle=orthogonalEdgeStyle;shape=connector;curved=0;rounded=1;orthogonalLoop=1;jettySize=auto;html=1;exitX=0.5;exitY=1;exitDx=0;exitDy=0;exitPerimeter=0;entryX=0.5;entryY=0;entryDx=0;entryDy=0;entryPerimeter=0;strokeColor=#3399FF;strokeWidth=3;align=center;verticalAlign=middle;fontFamily=Helvetica;fontSize=11;fontColor=default;labelBackgroundColor=default;endArrow=none;endFill=0;" edge="1" parent="suRE_rHokEg1OIpaxFs9-265" source="suRE_rHokEg1OIpaxFs9-266" target="suRE_rHokEg1OIpaxFs9-268">
          <mxGeometry relative="1" as="geometry" />
        </mxCell>
        <mxCell id="9GZUrrSOMpWSvkTZttJG-494" value="描述" style="" parent="0" visible="0" />
      </root>
    </mxGraphModel>
  </diagram>
</mxfile>
